<svg width="138" height="139" viewBox="0 0 138 139" fill="none" xmlns="http://www.w3.org/2000/svg">
<path fill-rule="evenodd" clip-rule="evenodd" d="M65.562 0.807725C63.874 1.21172 61.174 2.22372 59.562 3.05672C57.951 3.88972 51.232 7.36172 44.632 10.7717C38.032 14.1827 32.215 17.3897 31.706 17.8977C31.138 18.4637 31.52 19.6397 32.694 20.9377C35.961 24.5467 37.64 24.9717 41.789 23.2387C44.542 22.0887 47.532 21.7717 52.371 22.1177C56.553 22.4167 59.647 22.1767 60.513 21.4847C62.714 19.7267 73.132 4.03872 73.132 2.48272C73.132 1.71272 72.42 0.809724 71.55 0.475724C69.776 -0.205276 69.801 -0.206276 65.562 0.807725ZM74.406 6.61872C69.615 12.8267 63.441 22.3197 62.723 24.5827C62.213 26.1877 62.548 26.8657 64.091 27.3557C66.732 28.1937 68.275 31.0817 69.638 37.7377C70.858 43.6927 69.854 43.0577 84.905 47.3927L91.178 49.1987L93.905 46.6947C95.405 45.3177 98.036 43.2297 99.751 42.0547C102.583 40.1157 102.83 39.5257 102.438 35.6437C102.2 33.2927 101.761 27.8677 101.462 23.5877C100.952 16.3057 100.716 15.6557 97.775 13.4577C94.757 11.2017 79.109 2.86872 77.89 2.86872C77.566 2.86872 75.998 4.55672 74.406 6.61872ZM103.749 19.4257C103.42 20.2817 103.694 25.2797 104.357 30.5327C105.656 40.8147 105.602 40.7377 112.674 42.2747C115.371 42.8617 116.421 42.2987 121.924 37.3187C125.338 34.2287 128.132 31.0927 128.132 30.3487C128.132 28.8227 108.786 17.8687 106.091 17.8687C105.131 17.8687 104.077 18.5697 103.749 19.4257ZM14.379 26.5277C6.61202 30.7047 3.97702 32.6377 3.50902 34.5017C3.17002 35.8547 3.19102 37.2607 3.55602 37.6257C4.39402 38.4647 22.6 39.0427 26.687 38.3607C29.11 37.9567 30.196 36.9167 31.937 33.3337C33.144 30.8487 34.132 28.1707 34.132 27.3827C34.132 25.2867 28.981 20.8567 26.642 20.9407C25.537 20.9807 20.018 23.4947 14.379 26.5277ZM128.935 34.1187C127.567 35.3557 124.545 38.1027 122.221 40.2227L117.995 44.0757L118.666 50.3457C119.113 54.5187 118.937 57.3647 118.139 58.8557C117.153 60.6967 117.265 61.6997 118.763 64.4827C119.766 66.3447 121.186 67.8687 121.919 67.8687C122.652 67.8687 125.631 70.1187 128.538 72.8687C135.835 79.7697 136.743 79.5377 137.348 70.6187C137.746 64.7537 137.677 45.9717 137.226 37.6187C137.128 35.7897 133.753 31.8687 132.278 31.8687C131.808 31.8687 130.304 32.8817 128.935 34.1187ZM0.757024 43.9937C-1.08098 53.1827 0.414024 60.7187 5.39402 67.3687C17.348 83.3307 16.842 82.8707 21.632 82.1587C24.193 81.7777 25.29 80.5267 29.132 73.6047C31.607 69.1447 34.861 63.6677 36.364 61.4327C39.91 56.1577 39.828 54.8237 35.731 51.0957C33.861 49.3937 31.801 46.3967 31.154 44.4347L29.977 40.8687H15.679H1.38202L0.757024 43.9937ZM65.577 50.3687C62.881 52.8437 60.359 54.8687 59.971 54.8687C58.369 54.8687 58.135 58.9747 59.579 61.7657C61.145 64.7947 66.399 79.4147 68.24 85.8687C68.789 87.7937 70.177 91.7547 71.323 94.6717C73.269 99.6217 73.612 99.9547 76.482 99.6717C79.01 99.4227 80.008 98.5167 82.094 94.5787C98.899 62.8557 97.781 65.9597 94.08 61.3027C92.412 59.2047 91.132 56.3867 91.132 54.8127C91.132 52.2547 90.591 51.8627 84.382 49.9217C80.669 48.7617 76.25 47.3747 74.561 46.8407C70.466 45.5447 71.105 45.2937 65.577 50.3687ZM37.645 63.5067C35.651 67.2807 32.469 73.1647 30.574 76.5817C27.29 82.5037 27.196 82.9477 28.557 86.0817C29.343 87.8897 30.201 90.0797 30.463 90.9497C30.736 91.8557 34.291 93.7057 38.786 95.2817C43.101 96.7937 49.884 99.3447 53.859 100.951C65.706 105.734 71.662 104.44 69.371 97.5787C66.446 88.8197 59.917 71.0047 58.61 68.2177C57.797 66.4847 57.132 64.2077 57.132 63.1587C57.132 59.0887 54.706 57.4997 47.822 57.0617L41.27 56.6447L37.645 63.5067ZM112.382 65.5867C110.896 66.1197 110.698 71.4827 112.132 72.3687C112.682 72.7087 113.132 74.4697 113.132 76.2817C113.132 79.5967 115.692 83.1827 119.696 85.4777C121.2 86.3397 121.611 87.6247 121.536 91.2277C121.483 93.7807 121.865 95.8687 122.385 95.8687C122.904 95.8687 124.523 97.1387 125.981 98.6917C130.494 103.498 133.495 105.056 135.462 103.614C136.818 102.619 137.183 100.597 137.278 93.5657C137.409 83.8107 137.933 84.7887 128.622 77.4197C125.877 75.2487 122.282 72.0387 120.632 70.2887C117.205 66.6517 114.196 64.9367 112.382 65.5867ZM100.487 67.6337C99.857 68.0377 97.039 72.8687 94.224 78.3687C91.41 83.8687 88.639 88.9377 88.067 89.6327C87.495 90.3277 85.95 93.2217 84.633 96.0647C80.693 104.568 82.161 104.792 96.669 97.8967C105.654 93.6277 107.132 92.5867 107.132 90.5317C107.132 89.2157 108.1 86.9077 109.283 85.4037C111.381 82.7357 111.394 82.5407 109.783 77.4307C108.875 74.5497 108.132 71.4607 108.132 70.5657C108.132 67.8507 103.136 65.9347 100.487 67.6337ZM1.29902 71.1187C0.868024 72.3557 0.559024 79.9987 0.612024 88.1027L0.708025 102.837L3.89402 106.103C5.64602 107.899 10.128 110.908 13.855 112.789C17.583 114.67 21.403 116.862 22.345 117.66C24.609 119.579 27.144 118.505 27.085 115.65C27.059 114.396 26 110.235 24.73 106.405C22.684 100.233 22.072 99.3507 19.34 98.6427C13.518 97.1337 10.706 91.0917 13.239 85.5327C14.225 83.3697 13.845 82.4877 9.77102 77.4857C7.02902 74.1197 5.42602 71.2667 5.77002 70.3687C6.17102 69.3247 5.69802 68.8687 4.21402 68.8687C2.90202 68.8687 1.78102 69.7337 1.29902 71.1187ZM27.259 96.7687C25.554 97.8487 26.111 101.998 29.152 110.869C32.807 121.533 33.007 121.893 36.246 123.665C37.959 124.602 40.904 126.381 42.791 127.619C48.385 131.289 50.78 130.617 58.526 123.208L65.42 116.614L64.526 112.083C63.744 108.121 63.192 107.396 60.132 106.315C58.207 105.635 55.282 104.522 53.632 103.84C46.974 101.092 31.557 95.8697 30.142 95.8837C29.312 95.8927 28.014 96.2907 27.259 96.7687ZM106.132 97.2527C103.947 98.4637 96.023 102.217 89.493 105.133C87.963 105.816 87.057 107.553 86.313 111.229L85.273 116.369L89.72 120.557C96.684 127.116 96.426 127.12 109.132 120.199C112.157 118.551 117.861 115.514 121.808 113.451C129.182 109.596 131.362 107.137 128.718 105.657C127.896 105.197 125.613 103.302 123.646 101.447C121.341 99.2727 118.746 97.8987 116.35 97.5847C114.305 97.3157 111.732 96.8187 110.632 96.4807C109.532 96.1427 107.507 96.4897 106.132 97.2527ZM72.882 119.611C69.169 119.803 66.132 120.39 66.132 120.915C66.132 121.44 65.794 121.76 65.382 121.628C64.392 121.309 55.132 131.267 55.132 132.65C55.132 133.241 57.684 134.931 60.804 136.407C67.084 139.378 72.414 139.428 77.696 136.565C79.311 135.69 82.994 133.772 85.882 132.304C89.411 130.51 91.132 129.018 91.132 127.752C91.132 126.716 90.751 125.869 90.285 125.869C89.82 125.869 87.817 124.294 85.835 122.369C83.853 120.444 81.646 118.957 80.932 119.065C80.217 119.173 76.595 119.418 72.882 119.611Z" fill="url(#paint0_linear_2_57)"/>
<defs>
<linearGradient id="paint0_linear_2_57" x1="68.8047" y1="0" x2="68.8047" y2="138.674" gradientUnits="userSpaceOnUse">
<stop stop-color="#383F97"/>
<stop offset="1" stop-color="#7EC6DE"/>
</linearGradient>
</defs>
</svg>
