<svg width="320" height="124" viewBox="0 0 320 124" fill="none" xmlns="http://www.w3.org/2000/svg">
<path d="M20.8026 52.3819V8.81438L0 8.66296V3.43323e-05L50.4956 0.632364V9.29529L29.8315 8.88523V52.4528L20.8026 52.3819Z" fill="#013FFF"/>
<path d="M105.283 52.8629C104.576 52.0408 104.512 49.8909 104.512 48.1836V39.5839C104.512 35.0944 101.88 33.3238 97.2568 33.3238H66.1401V52.8629H56.1241V0.632364H97.4494C108.942 0.632364 114.657 5.43807 114.657 15.998V16.2509C114.657 23.586 112.024 27.4432 106.952 28.9608C112.152 30.4151 114.657 34.5885 114.657 40.0898V48.1836C114.657 49.8909 114.721 51.8511 115.427 52.8629H105.283ZM66.1401 24.9771H97.2568C102.072 24.9771 104.384 23.1433 104.384 18.1479V15.3657C104.384 10.8129 102.072 8.97913 97 8.97913H66.1401V24.9771Z" fill="#013FFF"/>
<path d="M144.867 53.9952C130.292 53.9952 124 48.1777 124 34.3929V1.13233H134.08V35.4679C134.08 42.7397 137.419 45.3955 144.867 45.3955C152.25 45.3955 155.589 42.7397 155.589 35.4679V1.13233H165.669V34.3929C165.669 48.3042 159.377 53.9952 144.867 53.9952Z" fill="#013FFF"/>
<path d="M195.926 53.9952C180.774 53.9952 172.748 44.194 172.748 30.9783V23.3904C172.748 10.2379 180.774 0.5 195.99 0.5C209.795 0.5 217.499 8.78353 218.205 19.7861L218.334 22.758H207.933L207.868 18.5847C207.483 13.526 203.502 9.09969 195.99 9.09969C186.937 9.09969 183.021 15.1068 183.021 22.2522V32.243C183.021 39.5148 186.937 45.3955 195.99 45.3955C203.631 45.3955 207.483 40.9059 207.868 35.8473L207.933 31.6739H218.334L218.205 34.6458C217.499 45.6484 209.859 53.9952 195.926 53.9952Z" fill="#013FFF"/>
<path d="M254.481 53.3628L237.338 31.7371H235.412V53.3628H225.396V1.13233H235.412V22.758H237.338L254.481 1.13233H266.937L245.492 27.2476L266.937 53.3628H254.481Z" fill="#013FFF"/>
<path d="M288.99 53.9952C273.966 53.9952 267.353 47.8615 267.353 36.2899V34.7723H277.561V37.5546C277.561 43.372 280.9 45.5852 289.183 45.5852C296.053 45.5852 299.07 43.8779 299.07 39.7677V38.6295C299.006 34.4561 296.759 33.0018 290.21 31.5474L280.772 28.9549C273.26 26.8049 268.508 22.6948 268.508 14.9804C268.508 5.55864 275.186 0.5 288.091 0.5C301.317 0.5 308.123 5.87481 308.123 15.6759V17.5097H297.915V15.2965C297.915 10.6805 295.154 8.84676 288.155 8.84676C281.735 8.84676 278.781 10.4276 278.781 14.0319V14.7907C278.781 18.3317 281.606 20.1022 286.807 21.2404L296.309 23.7698C304.656 25.9197 309.343 29.6504 309.343 38.3134C309.343 49.2527 303.244 53.9952 288.99 53.9952Z" fill="#013FFF"/>
<path d="M22.9855 124C7.96148 124 1.34831 117.866 1.34831 106.295V104.777H11.557V107.559C11.557 113.377 14.8957 115.59 23.1782 115.59C30.0481 115.59 33.0658 113.883 33.0658 109.773V108.634C33.0016 104.461 30.7544 103.007 24.2055 101.552L14.7673 98.9597C7.25522 96.8098 2.50401 92.6997 2.50401 84.9852C2.50401 75.5635 9.18138 70.5049 22.0867 70.5049C35.313 70.5049 42.1188 75.8797 42.1188 85.6808V87.5146H31.9101V85.3014C31.9101 80.6854 29.1493 78.8516 22.1509 78.8516C15.7303 78.8516 12.7769 80.4325 12.7769 84.0367V84.7955C12.7769 88.3366 15.6019 90.1071 20.8026 91.2453L30.305 93.7746C38.6517 95.9246 43.3387 99.6553 43.3387 108.318C43.3387 119.258 37.2392 124 22.9855 124Z" fill="#013FFF"/>
<path d="M50.4956 123.368V71.1372H85.4875V79.8001H60.5116V92.9526H83.6898V101.552H60.5116V114.705H85.4875V123.368H50.4956Z" fill="#013FFF"/>
<path d="M124.911 123.368C124.204 122.546 124.14 120.396 124.14 118.688V110.089C124.14 105.599 121.508 103.829 116.885 103.829H103.273V123.368H93.2574V71.1372H117.078C128.57 71.1372 134.285 75.9429 134.285 86.5028V86.7558C134.285 94.0908 131.652 97.948 126.58 99.4656C131.781 100.92 134.285 105.093 134.285 110.595V118.688C134.285 120.396 134.349 122.356 135.055 123.368H124.911ZM103.273 95.4819H116.885C121.7 95.4819 124.012 93.6482 124.012 88.6528V85.8705C124.012 81.3177 121.7 79.484 116.628 79.484H103.273V95.4819Z" fill="#013FFF"/>
<path d="M154.112 123.368L137.483 71.1372H148.077L160.468 113.124L160.982 114.515L161.496 113.124L173.823 71.1372H184.353L167.788 123.368H154.112Z" fill="#013FFF"/>
<path d="M186.172 123.368V71.1372H197.343V123.368H186.172Z" fill="#013FFF"/>
<path d="M224.928 124C209.776 124 201.75 114.199 201.75 100.983V93.3952C201.75 80.2428 209.776 70.5049 224.992 70.5049C238.797 70.5049 246.501 78.7884 247.208 89.791L247.336 92.7629H236.935L236.87 88.5895C236.485 83.5309 232.504 79.1046 224.992 79.1046C215.939 79.1046 212.023 85.1117 212.023 92.257V102.248C212.023 109.52 215.939 115.4 224.992 115.4C232.633 115.4 236.485 110.911 236.87 105.852L236.935 101.679H247.336L247.208 104.651C246.501 115.653 238.861 124 224.928 124Z" fill="#013FFF"/>
<path d="M254.398 123.368V71.1372H320V79.8001H264.414V92.9526H318.202V101.552H264.414V114.705H320V123.368H254.398Z" fill="#013FFF"/>
</svg>
