<svg width="1320" height="80" viewBox="0 0 1320 80" fill="none" xmlns="http://www.w3.org/2000/svg">
<path d="M23.6003 79.0544V13.9007H0V0.945626H62.2625V13.9007H38.6623V79.0544H23.6003Z" fill="#013FFF"/>
<path d="M117.969 79.0544C116.914 77.8251 116.818 74.6099 116.818 72.0567V59.1962C116.818 52.4823 112.885 49.8345 105.977 49.8345H85.6387V79.0544H70.6727V0.945626H106.265C123.438 0.945626 131.976 8.13238 131.976 23.9244V24.3026C131.976 35.2719 128.042 41.0402 120.464 43.3097C128.234 45.4846 131.976 51.7258 131.976 59.9527V72.0567C131.976 74.6099 132.072 77.5414 133.127 79.0544H117.969ZM85.6387 37.3522H105.977C113.172 37.3522 116.626 34.6099 116.626 27.1395V22.9787C116.626 16.1702 113.172 13.4279 105.593 13.4279H85.6387V37.3522Z" fill="#013FFF"/>
<path d="M175.008 80C153.231 80 143.829 71.3002 143.829 50.6856V0.945626H158.891V52.2931C158.891 63.1679 163.88 67.1395 175.008 67.1395C186.041 67.1395 191.03 63.1679 191.03 52.2931V0.945626H206.092V50.6856C206.092 71.4894 196.69 80 175.008 80Z" fill="#013FFF"/>
<path d="M251.302 80C228.661 80 216.669 65.3428 216.669 45.5792V34.2317C216.669 14.5626 228.661 0 251.398 0C272.024 0 283.536 12.3877 284.591 28.8416L284.783 33.2861H269.242L269.146 27.0449C268.57 19.4799 262.622 12.8605 251.398 12.8605C237.871 12.8605 232.019 21.844 232.019 32.5296V47.4704C232.019 58.3452 237.871 67.1395 251.398 67.1395C262.814 67.1395 268.57 60.4255 269.146 52.8605L269.242 46.6194H284.783L284.591 51.0638C283.536 67.5177 272.12 80 251.302 80Z" fill="#013FFF"/>
<path d="M338.795 79.0544L313.18 46.714H310.302V79.0544H295.336V0.945626H310.302V33.2861H313.18L338.795 0.945626H357.406L325.364 40L357.406 79.0544H338.795Z" fill="#013FFF"/>
<path d="M390.358 80C367.909 80 358.028 70.8274 358.028 53.5225V51.253H373.281V55.4137C373.281 64.1135 378.27 67.4232 390.646 67.4232C400.911 67.4232 405.42 64.87 405.42 58.7234V57.0213C405.324 50.7801 401.966 48.6052 392.181 46.4303L378.078 42.5532C366.854 39.3381 359.754 33.1915 359.754 21.6548C359.754 7.56501 369.732 0 389.015 0C408.778 0 418.947 8.03782 418.947 22.695V25.4374H403.693V22.1277C403.693 15.2246 399.568 12.4823 389.111 12.4823C379.517 12.4823 375.104 14.8463 375.104 20.2364V21.3712C375.104 26.6667 379.325 29.3144 387.096 31.0165L401.295 34.7991C413.766 38.0142 420.77 43.5934 420.77 56.5485C420.77 72.9078 411.656 80 390.358 80Z" fill="#013FFF"/>
<path d="M504.056 79.0544C503.001 77.8251 502.905 74.6099 502.905 72.0567V59.1962C502.905 52.4823 498.971 49.8345 492.064 49.8345H471.725V79.0544H456.759V0.945626H492.352C509.524 0.945626 518.063 8.13238 518.063 23.9244V24.3026C518.063 35.2719 514.129 41.0402 506.55 43.3097C514.321 45.4846 518.063 51.7258 518.063 59.9527V72.0567C518.063 74.6099 518.159 77.5414 519.214 79.0544H504.056ZM471.725 37.3522H492.064C499.259 37.3522 502.713 34.6099 502.713 27.1395V22.9787C502.713 16.1702 499.259 13.4279 491.68 13.4279H471.725V37.3522Z" fill="#013FFF"/>
<path d="M530.492 79.0544V0.945626H582.777V13.9007H545.458V33.5697H580.09V46.4303H545.458V66.0993H582.777V79.0544H530.492Z" fill="#013FFF"/>
<path d="M594.386 79.0544V0.945626H629.595C648.111 0.945626 657.129 8.79432 657.129 26.6667V27.6123C657.129 45.2955 648.59 53.4279 629.595 53.4279H609.352V79.0544H594.386ZM609.352 40.8511H629.883C638.517 40.8511 641.779 37.4468 641.779 29.8818V24.208C641.779 16.7376 638.517 13.4279 629.883 13.4279H609.352V40.8511Z" fill="#013FFF"/>
<path d="M655.222 79.0544L679.974 0.945626H700.408L725.255 79.0544H709.426L705.588 66.0993H674.793L670.955 79.0544H655.222ZM678.534 53.2388H701.847L690.91 16.2648L690.239 14.279L689.471 16.2648L678.534 53.2388Z" fill="#013FFF"/>
<path d="M727.973 79.0544V0.945626H744.666V79.0544H727.973Z" fill="#013FFF"/>
<path d="M801.233 79.0544C800.178 77.8251 800.082 74.6099 800.082 72.0567V59.1962C800.082 52.4823 796.148 49.8345 789.241 49.8345H768.903V79.0544H753.936V0.945626H789.529C806.701 0.945626 815.24 8.13238 815.24 23.9244V24.3026C815.24 35.2719 811.306 41.0402 803.727 43.3097C811.498 45.4846 815.24 51.7258 815.24 59.9527V72.0567C815.24 74.6099 815.336 77.5414 816.391 79.0544H801.233ZM768.903 37.3522H789.241C796.436 37.3522 799.89 34.6099 799.89 27.1395V22.9787C799.89 16.1702 796.436 13.4279 788.857 13.4279H768.903V37.3522Z" fill="#013FFF"/>
<path d="M881.937 80C859.488 80 849.607 70.8274 849.607 53.5225V51.253H864.86V55.4137C864.86 64.1135 869.849 67.4232 882.225 67.4232C892.49 67.4232 896.999 64.87 896.999 58.7234V57.0213C896.903 50.7801 893.545 48.6052 883.76 46.4303L869.657 42.5532C858.433 39.3381 851.333 33.1915 851.333 21.6548C851.333 7.56501 861.311 0 880.594 0C900.357 0 910.526 8.03782 910.526 22.695V25.4374H895.272V22.1277C895.272 15.2246 891.147 12.4823 880.69 12.4823C871.096 12.4823 866.683 14.8463 866.683 20.2364V21.3712C866.683 26.6667 870.904 29.3144 878.675 31.0165L892.874 34.7991C905.345 38.0142 912.349 43.5934 912.349 56.5485C912.349 72.9078 903.235 80 881.937 80Z" fill="#013FFF"/>
<path d="M923.043 79.0544V0.945626H975.328V13.9007H938.009V33.5697H972.642V46.4303H938.009V66.0993H975.328V79.0544H923.043Z" fill="#013FFF"/>
<path d="M1034.23 79.0544C1033.18 77.8251 1033.08 74.6099 1033.08 72.0567V59.1962C1033.08 52.4823 1029.15 49.8345 1022.24 49.8345H1001.9V79.0544H986.938V0.945626H1022.53C1039.7 0.945626 1048.24 8.13238 1048.24 23.9244V24.3026C1048.24 35.2719 1044.31 41.0402 1036.73 43.3097C1044.5 45.4846 1048.24 51.7258 1048.24 59.9527V72.0567C1048.24 74.6099 1048.34 77.5414 1049.39 79.0544H1034.23ZM1001.9 37.3522H1022.24C1029.44 37.3522 1032.89 34.6099 1032.89 27.1395V22.9787C1032.89 16.1702 1029.44 13.4279 1021.86 13.4279H1001.9V37.3522Z" fill="#013FFF"/>
<path d="M1077.87 79.0544L1053.02 0.945626H1068.85L1087.36 63.7352L1088.13 65.8156L1088.9 63.7352L1107.32 0.945626H1123.05L1098.3 79.0544H1077.87Z" fill="#013FFF"/>
<path d="M1125.77 79.0544V0.945626H1142.46V79.0544H1125.77Z" fill="#013FFF"/>
<path d="M1183.68 80C1161.04 80 1149.05 65.3428 1149.05 45.5792V34.2317C1149.05 14.5626 1161.04 0 1183.78 0C1204.4 0 1215.92 12.3877 1216.97 28.8416L1217.16 33.2861H1201.62L1201.52 27.0449C1200.95 19.4799 1195 12.8605 1183.78 12.8605C1170.25 12.8605 1164.4 21.844 1164.4 32.5296V47.4704C1164.4 58.3452 1170.25 67.1395 1183.78 67.1395C1195.19 67.1395 1200.95 60.4255 1201.52 52.8605L1201.62 46.6194H1217.16L1216.97 51.0638C1215.92 67.5177 1204.5 80 1183.68 80Z" fill="#013FFF"/>
<path d="M1227.71 79.0544V0.945626H1320V13.9007H1242.68V33.5697H1317.31V46.4303H1242.68V66.0993H1320V79.0544H1227.71Z" fill="#013FFF"/>
</svg>
