<svg width="27" height="27" viewBox="0 0 27 27" fill="none" xmlns="http://www.w3.org/2000/svg">
<g clip-path="url(#clip0_160_119)">
<path d="M13.0713 2.41389C16.5427 2.41389 16.9516 2.42682 18.3246 2.4895C19.1489 2.49926 19.9654 2.65071 20.7384 2.93723C21.3022 3.14575 21.8121 3.47791 22.2308 3.90929C22.6619 4.32821 22.994 4.83809 23.2029 5.40172C23.4895 6.17465 23.6409 6.99115 23.6506 7.81546C23.7133 9.1865 23.7262 9.59742 23.7262 13.0678C23.7262 16.5382 23.7133 16.9481 23.6506 18.3211C23.6409 19.1454 23.4895 19.9619 23.2029 20.7349C22.9943 21.2987 22.6622 21.8086 22.2308 22.2273C21.8124 22.6593 21.3024 22.9918 20.7384 23.2004C19.9654 23.4869 19.1489 23.6383 18.3246 23.6481C16.9536 23.7108 16.5427 23.7237 13.0713 23.7237C9.59991 23.7237 9.19099 23.7108 7.81796 23.6481C6.99367 23.6382 6.1772 23.4868 5.40421 23.2004C4.84015 22.9918 4.33013 22.6593 3.91179 22.2273C3.4804 21.8086 3.14825 21.2987 2.93973 20.7349C2.65309 19.9619 2.50164 19.1454 2.492 18.3211C2.42932 16.9501 2.41638 16.5392 2.41638 13.0678C2.41638 9.59642 2.42932 9.1875 2.492 7.81546C2.50164 6.99115 2.65309 6.17465 2.93973 5.40172C3.14861 4.83809 3.48071 4.32821 3.91179 3.90929C4.33045 3.47791 4.8404 3.14575 5.40421 2.93723C6.1772 2.65081 6.99367 2.49936 7.81796 2.4895C9.19099 2.42682 9.59991 2.41389 13.0713 2.41389ZM13.0713 0.0717773C9.54121 0.0717773 9.09846 0.0867016 7.7115 0.149383C6.63323 0.17146 5.56648 0.375995 4.55652 0.754312C3.68876 1.08049 2.90268 1.5922 2.25321 2.2537C1.59203 2.90305 1.08036 3.68872 0.753824 4.55601C0.375364 5.56625 0.171152 6.6334 0.14989 7.71199C0.0862128 9.09795 0.0712891 9.5407 0.0712891 13.0708C0.0712891 16.6009 0.0862128 17.0446 0.14989 18.4306C0.171152 19.5092 0.375364 20.5763 0.753824 21.5865C1.08036 22.4538 1.59203 23.2395 2.25321 23.8889C2.90293 24.5501 3.68893 25.0617 4.55652 25.3882C5.5664 25.7667 6.63323 25.9709 7.7115 25.9922C9.09846 26.0559 9.54121 26.0708 13.0713 26.0708C16.6014 26.0708 17.0441 26.0559 18.4311 25.9922C19.5093 25.9709 20.5762 25.7667 21.5861 25.3882C22.4536 25.0617 23.2397 24.5501 23.8894 23.8889C24.5505 23.2395 25.0622 22.4538 25.3888 21.5865C25.7672 20.5763 25.9714 19.5092 25.9927 18.4306C26.0564 17.0446 26.0713 16.6019 26.0713 13.0708C26.0713 9.53971 26.0564 9.09795 25.9927 7.71199C25.9714 6.6334 25.7672 5.56625 25.3888 4.55601C25.0622 3.68872 24.5505 2.90305 23.8894 2.2537C23.2399 1.5922 22.4538 1.08049 21.5861 0.754312C20.5761 0.375995 19.5093 0.17146 18.4311 0.149383C17.0441 0.0867016 16.6014 0.0717773 13.0713 0.0717773Z" fill="white"/>
<path d="M13.0711 6.39551C11.3008 6.39551 9.60292 7.09878 8.35109 8.3506C7.09926 9.60243 6.396 11.3003 6.396 13.0706C6.396 14.8411 7.09923 16.539 8.35103 17.791C9.60283 19.043 11.3007 19.7465 13.0711 19.7467C13.9478 19.7467 14.8159 19.574 15.6258 19.2385C16.4357 18.903 17.1716 18.4112 17.7915 17.7913C18.4113 17.1713 18.903 16.4354 19.2384 15.6254C19.5738 14.8154 19.7463 13.9473 19.7462 13.0706C19.7462 12.194 19.5736 11.326 19.2381 10.5162C18.9027 9.7063 18.411 8.97044 17.7911 8.3506C17.1713 7.73076 16.4354 7.23908 15.6256 6.90362C14.8157 6.56816 13.9477 6.39551 13.0711 6.39551ZM13.0711 17.4046C12.502 17.4046 11.9385 17.2925 11.4127 17.0747C10.8869 16.8569 10.4092 16.5376 10.0069 16.1352C9.60449 15.7327 9.28535 15.2549 9.06765 14.7291C8.84996 14.2033 8.73797 13.6397 8.73811 13.0706C8.73811 11.9214 9.19462 10.8193 10.0072 10.0067C10.8198 9.19413 11.9219 8.73762 13.0711 8.73762C14.2203 8.73762 15.3224 9.19413 16.135 10.0067C16.9476 10.8193 17.4041 11.9214 17.4041 13.0706C17.4042 13.6397 17.2923 14.2033 17.0746 14.7291C16.8569 15.2549 16.5377 15.7327 16.1354 16.1352C15.733 16.5376 15.2553 16.8569 14.7295 17.0747C14.2037 17.2925 13.6402 17.4046 13.0711 17.4046Z" fill="white"/>
<path d="M21.5713 6.13186C21.5713 6.54562 21.407 6.94243 21.1144 7.235C20.8218 7.52757 20.425 7.69194 20.0113 7.69194C19.5975 7.69194 19.2007 7.52757 18.9081 7.235C18.6155 6.94243 18.4512 6.54562 18.4512 6.13186C18.4512 5.7181 18.6155 5.32129 18.9081 5.02871C19.2007 4.73614 19.5975 4.57178 20.0113 4.57178C20.425 4.57178 20.8218 4.73614 21.1144 5.02871C21.407 5.32129 21.5713 5.7181 21.5713 6.13186Z" fill="white"/>
</g>
<defs>
<clipPath id="clip0_160_119">
<rect width="26" height="25.999" fill="white" transform="translate(0.0712891 0.0717773)"/>
</clipPath>
</defs>
</svg>
