<svg xmlns="http://www.w3.org/2000/svg" viewBox="0 0 750 500"><g id="freepik--Floor--inject-6"><path d="M706,471c0,.14-148.21.26-331,.26S44,471.15,44,471s148.18-.26,331-.26S706,470.87,706,471Z" style="fill:#263238"></path></g><g id="freepik--pick-up-truck--inject-6"><path d="M313.09,406.81c0,.15-13.11.26-29.29.26s-29.3-.11-29.3-.26,13.11-.26,29.3-.26S313.09,406.67,313.09,406.81Z" style="fill:#fff"></path><rect x="86.43" y="403.1" width="65.67" height="7.43" style="fill:#e0e0e0"></rect><path d="M88.14,406.81c0,2.05-.76,3.71-1.71,3.71s-1.71-1.66-1.71-3.71.77-3.71,1.71-3.71S88.14,404.76,88.14,406.81Z" style="fill:#263238"></path><g style="opacity:0.30000000000000004"><path d="M119.9,403.1a10,10,0,0,0-.37,7.42h7.28V403.1Z"></path></g><rect x="104.37" y="346.21" width="157.3" height="51.64" style="fill:#FF725E"></rect><rect x="104.37" y="346.21" width="157.3" height="51.64" style="opacity:0.30000000000000004"></rect><path d="M325,307.86v89.85A12.28,12.28,0,0,1,312.72,410H245.26a8.16,8.16,0,0,1-8.06-6.92c-2.38-15.46-13-51.43-59.94-51.66-42.55-.21-57.3,28.52-61.65,40.8a8.15,8.15,0,0,1-7.71,5.44l-45.37-.15a14.69,14.69,0,0,1-14.65-14.67l-.16-77.7A8.14,8.14,0,0,1,56,297l261,2.74A8.15,8.15,0,0,1,325,307.86Z" style="fill:#FF725E"></path><path d="M113.78,398.23l-56.54-.37c-3.21,0-9.54-2.41-9.54-13.18V372.77l78.39.73A74.56,74.56,0,0,0,113.78,398.23Z" style="fill:#e0e0e0"></path><rect x="47.7" y="336.28" width="14.44" height="29.07" rx="2.7" style="fill:#fff;opacity:0.30000000000000004"></rect><path d="M57.11,329.27H321.75a3.06,3.06,0,0,0,3.06-3.06h0a3.06,3.06,0,0,0-3.06-3.06H57.11a3.06,3.06,0,0,0-3.06,3.06h0A3.06,3.06,0,0,0,57.11,329.27Z" style="opacity:0.30000000000000004"></path><path d="M324.41,302,47.74,300.38a2.13,2.13,0,0,1-2.11-2.13h0a2.12,2.12,0,0,1,2.14-2.11l276.67,1.59a2.12,2.12,0,0,1,2.11,2.13h0A2.13,2.13,0,0,1,324.41,302Z" style="fill:#e0e0e0"></path><path d="M324.41,302a2.26,2.26,0,0,0,1.34-.5,2.09,2.09,0,0,0,.75-1.55,2.07,2.07,0,0,0-1.21-1.95,3.24,3.24,0,0,0-1.45-.19h-5.48l-9.53,0-60.72-.27L47.78,296.4a1.87,1.87,0,0,0-1.87,2.13,1.85,1.85,0,0,0,.85,1.3,2.68,2.68,0,0,0,1.62.29l7.27,0,14.39.09,28.14.16,53.19.32,90.06.58,60.72.43,16.51.14,4.29.05,1.46,0L323,302h-4.29l-16.51-.05-60.72-.26-90.06-.47-53.19-.29L70,300.77l-14.39-.09-7.27,0a7.72,7.72,0,0,1-1,0,2.54,2.54,0,0,1-1-.35,2.38,2.38,0,0,1,1.3-4.39l200.33,1.22,60.72.44,9.53.07,3.82,0h1.66a3.25,3.25,0,0,1,1.5.22,2.16,2.16,0,0,1,1.24,2.05,2.12,2.12,0,0,1-.8,1.58A2,2,0,0,1,324.41,302Z" style="fill:#263238"></path><path d="M321.23,410H237.89c0-7.33-4.08-20.79-9.31-31H325v27.25A3.78,3.78,0,0,1,321.23,410Z" style="fill:#e0e0e0"></path><path d="M228.29,353.54a.92.92,0,0,1-.25-.12l-.72-.4c-.63-.34-1.53-.92-2.74-1.56a95.85,95.85,0,0,0-10.46-5A92.16,92.16,0,0,0,156,342.61a93.06,93.06,0,0,0-16.14,5.78,95.66,95.66,0,0,0-10.2,5.49c-1.17.7-2,1.32-2.65,1.7l-.7.44c-.16.09-.24.14-.25.13a1.19,1.19,0,0,1,.22-.18l.67-.48c.59-.4,1.44-1.05,2.61-1.78a85.62,85.62,0,0,1,10.14-5.66,91.63,91.63,0,0,1,74.53-1.9,84.86,84.86,0,0,1,10.42,5.14c1.2.66,2.08,1.27,2.7,1.64l.69.45Z" style="fill:#263238"></path><path d="M229.32,417.64s0-.09,0-.14h0a54,54,0,0,0-108-1.55h0s0,.09,0,.13,0,.21,0,.31,0,.06,0,.09a54,54,0,1,0,108,1.55c0-.1,0-.2,0-.3S229.32,417.67,229.32,417.64Z" style="fill:#263238"></path><path d="M141.6,416.77a33.72,33.72,0,1,0,34.21-33.23A33.71,33.71,0,0,0,141.6,416.77Z" style="fill:#e0e0e0"></path><path d="M175.81,383.54a33.72,33.72,0,0,0-34.21,33.23l67.44,1A33.71,33.71,0,0,0,175.81,383.54Z" style="fill:#e0e0e0"></path><path d="M147.6,416.86a27.73,27.73,0,1,0,28.12-27.33A27.72,27.72,0,0,0,147.6,416.86Z" style="fill:#263238"></path><path d="M162.84,389.31c.29.44,10.53,12.85,10.53,12.85h5.34l10.11-11.69,9.67,6.64-8.09,13.56.73,4.05,15.3,7.79L200.8,434.2l-13.86-5.48-4.19,2.45-1.58,17.32-12.7-.87-.15-16.31-4-3.6-16,4.47-4-12.12L160.67,415l1.73-4.47-9.67-15.73Z" style="fill:#e0e0e0"></path><circle cx="175.32" cy="417.74" r="4.94" style="fill:#263238"></circle><path d="M286.44,328.86c0,.14-50.51.26-112.8.26S60.83,329,60.83,328.86s50.5-.26,112.81-.26S286.44,328.71,286.44,328.86Z" style="fill:#263238"></path><path d="M319.19,394.81c0,.14-18.4.26-41.1.26S237,395,237,394.81s18.41-.26,41.12-.26S319.19,394.66,319.19,394.81Z" style="fill:#263238"></path><path d="M52.26,385.49c0-.14,14.81-.26,33.07-.26s33.08.12,33.08.26-14.81.26-33.08.26S52.26,385.63,52.26,385.49Z" style="fill:#263238"></path><rect x="241.67" y="398.01" width="78.34" height="9.47" rx="2.59" style="fill:#fff;opacity:0.4"></rect><rect x="56.72" y="386.64" width="54.59" height="9.47" rx="2.59" style="fill:#fff;opacity:0.4"></rect><path d="M106.27,395.45c0,.14-9.58.26-21.4.26s-21.39-.12-21.39-.26,9.58-.26,21.39-.26S106.27,395.3,106.27,395.45Z" style="fill:#fff"></path><g style="opacity:0.4"><path d="M175.66,343.62a80.51,80.51,0,0,0-50.29,16.71,6.05,6.05,0,0,0-1.73,1.8,2.16,2.16,0,0,0,.09,2.37c.54.64,1.85,1.21,4-.47,16.11-13.94,30-17.17,47.81-17.3,1.16,0,2.71-.35,2.74-1.5S176.82,343.65,175.66,343.62Z" style="fill:#fff"></path></g><circle cx="184.67" cy="345.05" r="1.68" style="fill:#fff;opacity:0.4"></circle><path d="M235,322.42c0,.14-35,.26-78.24.26s-78.25-.12-78.25-.26,35-.26,78.25-.26S235,322.27,235,322.42Z" style="fill:#fff"></path><path d="M270.51,322.7a81,81,0,0,1-9.1.26,80.8,80.8,0,0,1-9.1-.26,78.06,78.06,0,0,1,9.1-.26A78.2,78.2,0,0,1,270.51,322.7Z" style="fill:#fff"></path><path d="M59.45,365.35a8,8,0,0,0,.81-.18,2.68,2.68,0,0,0,1.61-1.58,4.23,4.23,0,0,0,.15-1.68c0-.63,0-1.32,0-2.06,0-1.49,0-3.17,0-5,0-3.74,0-8.18-.05-13.09,0-.62,0-1.24,0-1.88a4.54,4.54,0,0,0-.18-1.79,2.48,2.48,0,0,0-1.18-1.27,3.57,3.57,0,0,0-1.84-.26H50.4A2.44,2.44,0,0,0,48,339V343c0,2.68,0,5.27,0,7.73s0,4.81,0,7c0,1.1,0,2.15,0,3.17,0,.51,0,1,0,1.5a2.72,2.72,0,0,0,.25,1.31,2.52,2.52,0,0,0,1.92,1.41c.8,0,1.62,0,2.35,0l3.8.05,2.4.05a4.22,4.22,0,0,1,.84.05,5.5,5.5,0,0,1-.84,0l-2.4.05-3.8,0c-.75,0-1.51.05-2.39,0a2.9,2.9,0,0,1-2.21-1.58,3.11,3.11,0,0,1-.3-1.47c0-.49,0-1,0-1.5,0-1,0-2.07,0-3.17,0-2.19,0-4.53,0-7s0-5,0-7.73c0-1.34,0-2.71,0-4.1a2.93,2.93,0,0,1,.87-2.06A3,3,0,0,1,50.4,336h8.3c.35,0,.65,0,1,0a2.66,2.66,0,0,1,1,.3,2.94,2.94,0,0,1,1.42,1.53,3.05,3.05,0,0,1,.21,1v2.83c0,4.91,0,9.35-.06,13.09,0,1.86,0,3.54,0,5,0,.74,0,1.43,0,2.06a4.46,4.46,0,0,1-.21,1.75,2.78,2.78,0,0,1-1.77,1.61A2.07,2.07,0,0,1,59.45,365.35Z" style="fill:#263238"></path><path d="M113.78,398.23a6,6,0,0,1-.88,0l-2.53.05-9.28.08-30.62.08H61.74a36.35,36.35,0,0,1-4.18-.12,11.16,11.16,0,0,1-3.85-1.24,11.67,11.67,0,0,1-5.09-5.33,13.06,13.06,0,0,1-1.1-6.34c0-3.88.06-7,.08-9.28,0-1.06,0-1.9,0-2.52a6,6,0,0,1,.05-.88,4.59,4.59,0,0,1,0,.88c0,.62,0,1.46,0,2.52,0,2.24.05,5.4.09,9.28A12.73,12.73,0,0,0,49,391.6a11.35,11.35,0,0,0,4.92,5.1,10.82,10.82,0,0,0,3.7,1.16,34.61,34.61,0,0,0,4.11.11h8.73l30.62.07,9.28.09,2.53.05A4.59,4.59,0,0,1,113.78,398.23Z" style="fill:#263238"></path><path d="M325.52,379.21a1.25,1.25,0,0,1,0,.3c0,.23,0,.52,0,.88,0,.81,0,1.94.05,3.38,0,3,.05,7.21.08,12.43,0,2.62,0,5.5,0,8.58a5.77,5.77,0,0,1-1.93,4.41,5.53,5.53,0,0,1-2.27,1.23,9.23,9.23,0,0,1-2.61.22l-22.57,0-41-.08-12.43-.08-3.37-.05-.88,0a1,1,0,0,1-.3,0l.3,0,.88,0,3.37-.05,12.43-.09,41-.07,22.57,0a8.81,8.81,0,0,0,2.49-.19,5.11,5.11,0,0,0,2.09-1.12,5.29,5.29,0,0,0,1.79-4.07c0-3.08,0-6,0-8.58,0-5.22.06-9.46.08-12.43,0-1.44,0-2.57.05-3.38,0-.36,0-.65,0-.88A1.25,1.25,0,0,1,325.52,379.21Z" style="fill:#263238"></path><rect x="513.72" y="351.5" width="157.3" height="51.64" style="fill:#FF725E"></rect><rect x="513.72" y="351.5" width="157.3" height="51.64" style="opacity:0.30000000000000004"></rect><path d="M342.81,228.69l119.37,1.09S476,228.57,484.23,241c4.61,7,51.69,53.79,51.69,53.79s78.53,5.51,103.49,10.07,48.2,11,50.78,22.08,0,50.63,0,50.63H658.86s-9.21-22.88-50-20-51.73,53.76-51.73,53.76l-228.73-.92V310.73l7.88-76.23A6.48,6.48,0,0,1,342.81,228.69Z" style="fill:#FF725E"></path><polygon points="674.19 415.4 674.19 426.79 693.31 426.79 695.2 415.4 674.19 415.4" style="fill:#263238"></polygon><path d="M661.32,376.22l-3.06,2.48c.45-.56,10,14.33,11,23.34.64,5.79,1.72,11.5,1.9,14.43a2,2,0,0,0,2.07,1.9l25.46-.63s3.21.6,3.82-5.47,2.64-26.06,1.59-28.84c-1.76-4.66-13-3.71-13-3.71l-.17-3.5Z" style="fill:#e0e0e0"></path><path d="M690.82,331.07s-12.58,0-13.85,0c-1.9,0-6.15.22-6,7.59.15,9.49,0,22.25,0,22.25s-1,6.9,6.18,6.9c6.36,0,13.6,0,13.6,0s.7-15.83.61-21.26c-.06-3.83-.19-9.84-.32-13.11C691,332,690.82,331.07,690.82,331.07Z" style="fill:#e0e0e0"></path><path d="M691.07,334.2h-12.7a4.63,4.63,0,0,0-4.11,4.74c-.15,2.7,0,14.51,0,14.51h17s.07-7.47,0-11.35S691.07,334.2,691.07,334.2Z" style="fill:#FF725E"></path><path d="M674.23,353.45l.06,6.62a4.43,4.43,0,0,0,4.86,4.47c4.86-.07,11.71,0,11.71,0l.42-11.11Z" style="fill:#fff"></path><path d="M500.35,285.35l-2.66,15.42h10.06a2.55,2.55,0,0,0,2.56-2.56h0a2.51,2.51,0,0,0-.59-1.63C507.84,294.31,502,287.26,500.35,285.35Z" style="fill:#263238"></path><path d="M407.22,239.89s-6.37-.8-6.77,7.57c-.34,7.13-1,40.19-1.15,49.78a2.58,2.58,0,0,0,2.57,2.63l95.68.69a3.23,3.23,0,0,0,3.24-3.3l-.25-10.51a3.25,3.25,0,0,0-.72-1.95l-34.67-43a2.6,2.6,0,0,0-2-1Z" style="fill:#455a64"></path><path d="M407.22,239.89s.26,0,.76,0l2.21,0,8.52.1,31.32.46,10.37.16,2.73,0a2.89,2.89,0,0,1,1.43.38,3.79,3.79,0,0,1,1.05,1l3.6,4.46,15.61,19.3,8.43,10.44,4.36,5.4,2.21,2.74a3.68,3.68,0,0,1,.88,1.64,11.63,11.63,0,0,1,.12,1.83q.07,3.56.17,7.19l0,1.82a3.68,3.68,0,0,1-.3,1.89,3.46,3.46,0,0,1-3.15,2l-14.94-.1-56.89-.43-12.78-.1-6.12-.05-3,0h-1.47a3.85,3.85,0,0,1-1.52-.2,2.82,2.82,0,0,1-1.77-2.38c0-1,0-1.91,0-2.86.05-1.88.09-3.72.14-5.52q.13-5.42.25-10.38c.34-13.21.62-23.9.81-31.31a10.45,10.45,0,0,1,1.26-4.74,5.85,5.85,0,0,1,2.69-2.36,6.21,6.21,0,0,1,2.17-.49,3.87,3.87,0,0,1,.75,0,5.28,5.28,0,0,0-.75,0,6.32,6.32,0,0,0-2.12.52,5.75,5.75,0,0,0-2.6,2.35,10.27,10.27,0,0,0-1.2,4.67c-.15,7.41-.37,18.1-.64,31.31q-.11,5-.22,10.38-.06,2.7-.12,5.52c0,.93-.05,1.9-.05,2.81a2.39,2.39,0,0,0,1.51,2,3.51,3.51,0,0,0,1.36.16h1.48l3,0,6.12,0,12.77.08,56.89.39,14.94.11a3,3,0,0,0,2.68-1.74,3.31,3.31,0,0,0,.26-1.67l0-1.82q-.09-3.61-.17-7.19a11.71,11.71,0,0,0-.1-1.72,3.23,3.23,0,0,0-.78-1.44L497.22,282l-4.35-5.4-8.43-10.46-15.56-19.33-3.59-4.47c-1-1.76-3.15-1.15-4.9-1.3l-10.38-.2-31.31-.63-8.51-.2-2.22-.06Z" style="fill:#263238"></path><polygon points="468.39 245.84 467.56 299.98 474.24 300.67 474.24 253.09 468.39 245.84" style="fill:#263238"></polygon><path d="M380.55,239.87l-4,59.18a192.59,192.59,0,0,1-23.13-3.27,54.32,54.32,0,0,1-8-2.65,11.36,11.36,0,0,1-6.62-11.4l3.29-35.85a6.08,6.08,0,0,1,5.89-6Z" style="fill:#455a64"></path><path d="M380.55,239.87l-.49,0h-1.41l-5.35,0-19.58.1c-2.05,0-4.25,0-6.45.07a5.84,5.84,0,0,0-4.73,4.34,8.58,8.58,0,0,0-.25,1.77c-.06.62-.11,1.24-.17,1.87-.11,1.25-.23,2.52-.34,3.82q-.36,3.87-.73,8c-.49,5.45-1,11.17-1.55,17.11l-.41,4.49a11.28,11.28,0,0,0,.39,4.43,11.1,11.1,0,0,0,5.71,6.8,48.76,48.76,0,0,0,7.92,2.72c2.69.62,5.39,1.1,8,1.53,5.32.83,10.49,1.42,15.43,1.84l-.26.23c1.21-17.27,2.25-32,3-42.49.38-5.23.69-9.38.89-12.25.11-1.42.2-2.51.26-3.28l.07-.85a2.29,2.29,0,0,1,0-.3,1.68,1.68,0,0,1,0,.27c0,.2,0,.47,0,.82-.05.76-.11,1.84-.19,3.23-.18,2.86-.44,7-.76,12.2-.68,10.52-1.63,25.34-2.75,42.68l0,.25-.24,0c-5-.41-10.14-1-15.48-1.83-2.66-.42-5.36-.9-8.09-1.53-1.35-.35-2.69-.75-4-1.2a31.91,31.91,0,0,1-4-1.55,11.63,11.63,0,0,1-6.38-11.75c.14-1.51.27-3,.41-4.49.55-5.93,1.08-11.65,1.59-17.1.25-2.73.5-5.38.74-8q.18-1.94.36-3.81c.05-.63.11-1.25.17-1.87a8.54,8.54,0,0,1,.28-1.86,6.23,6.23,0,0,1,5.09-4.62c2.31-.11,4.46,0,6.55,0l19.65.1,5.31,0,1.37,0Z" style="fill:#263238"></path><path d="M481.16,237.21a1.15,1.15,0,0,0-.94-.35c-1.35.15-4.74.6-4.82,1.32s36,43.87,46.68,56.61a6.56,6.56,0,0,0,7.25,1.94l6.59-2.39Z" style="fill:#455a64"></path><path d="M481.16,237.21a2.26,2.26,0,0,1,.29.27c.21.2.48.48.83.83l3.18,3.25c2.77,2.85,6.74,7,11.68,12.07l39,40.53.28.29-.38.14c-2.32.82-4.71,1.75-7.26,2.59a6.79,6.79,0,0,1-6.42-1.75c-.55-.55-1-1.12-1.45-1.68l-5.54-6.61L504.9,274.62l-17.6-21.27c-5-6.09-9-11-11.63-14.54l-.23-.34c-.06-.12-.2-.3-.08-.45a1.36,1.36,0,0,1,.68-.44,9.48,9.48,0,0,1,1.33-.36c.83-.16,1.54-.25,2.12-.32a2.41,2.41,0,0,1,1.31,0,.78.78,0,0,1,.36.28,1.59,1.59,0,0,0-.38-.23,2.39,2.39,0,0,0-1.28,0c-.57.09-1.28.19-2.1.37a9.33,9.33,0,0,0-1.3.38,1.21,1.21,0,0,0-.57.37c-.07.14.17.34.31.58,2.66,3.48,6.74,8.36,11.75,14.41l17.68,21.2c3.33,4,6.83,8.17,10.46,12.5l5.54,6.61c.48.54.94,1.15,1.43,1.64a6.57,6.57,0,0,0,1.73,1.21,6.29,6.29,0,0,0,4.19.4c2.45-.81,4.92-1.76,7.21-2.57l-.09.42-38.85-40.65-11.57-12.18-3.11-3.31-.79-.87A2,2,0,0,1,481.16,237.21Z" style="fill:#263238"></path><path d="M392.69,321.55h0a4,4,0,0,1-4-4h0a4,4,0,0,1,4-4h0a4,4,0,0,1,4,4h0A4,4,0,0,1,392.69,321.55Z" style="fill:#e0e0e0"></path><path d="M415.18,322.46v-6.22a4,4,0,0,0-4-4h-9.26a4,4,0,0,0-4,4v6.22H328.5v7.11H664.36a3.55,3.55,0,0,0,3.55-3.55h0a3.55,3.55,0,0,0-3.55-3.56Z" style="opacity:0.30000000000000004"></path><circle cx="391.14" cy="334.81" r="2.85" style="fill:#e0e0e0"></circle><rect x="553.67" y="342.27" width="23.52" height="7.44" rx="2.48" style="fill:#e0e0e0"></rect><rect x="266.12" y="409.54" width="278.84" height="10" style="fill:#263238"></rect><path d="M555.55,412l-227.12-1.57V377l242.76.16L558,410.27A2.65,2.65,0,0,1,555.55,412Z" style="fill:#e0e0e0"></path><path d="M559.78,397.6c0,.14-51,.26-114,.26s-114-.12-114-.26,51-.26,114-.26S559.78,397.45,559.78,397.6Z" style="fill:#263238"></path><path d="M664.75,358.23a1.63,1.63,0,0,1-.27-.17l-.75-.54c-.67-.46-1.59-1.24-2.89-2.07a71.26,71.26,0,0,0-11.38-6.34A77.26,77.26,0,0,0,641,346,75.81,75.81,0,0,0,631,343.7a68.71,68.71,0,0,0-45.62,8.56A71.67,71.67,0,0,0,570.06,364a71.24,71.24,0,0,0-8.31,10c-.91,1.25-1.48,2.3-1.94,3l-.5.78a2.34,2.34,0,0,1-.19.26,1.27,1.27,0,0,1,.14-.29l.46-.8c.43-.69,1-1.76,1.86-3a67.14,67.14,0,0,1,8.22-10.18,74.63,74.63,0,0,1,6.71-6.07,76.63,76.63,0,0,1,8.59-5.85A68.63,68.63,0,0,1,631,343.22a75.7,75.7,0,0,1,10.12,2.33,74,74,0,0,1,8.46,3.23,66.67,66.67,0,0,1,11.35,6.5c1.28.86,2.18,1.67,2.83,2.15l.72.58Z" style="fill:#263238"></path><path d="M669.94,418.09V418h0a54,54,0,0,0-108-1.55h0a.61.61,0,0,0,0,.14c0,.1,0,.2,0,.3v.09a54,54,0,1,0,108,1.56v-.4Z" style="fill:#263238"></path><path d="M582.23,417.22A33.72,33.72,0,1,0,616.43,384,33.73,33.73,0,0,0,582.23,417.22Z" style="fill:#e0e0e0"></path><path d="M616.43,384a33.73,33.73,0,0,0-34.21,33.23l67.44,1A33.72,33.72,0,0,0,616.43,384Z" style="fill:#e0e0e0"></path><path d="M588.22,417.31A27.73,27.73,0,1,0,616.34,390,27.72,27.72,0,0,0,588.22,417.31Z" style="fill:#263238"></path><path d="M603.46,389.77c.29.43,10.54,12.84,10.54,12.84h5.34l10.1-11.69,9.67,6.64L631,411.13l.72,4,15.3,7.79-5.63,11.69-13.86-5.48-4.18,2.45-1.59,17.32-12.7-.86L609,431.77l-4.05-3.61-16,4.47-4-12.12,16.46-5.05L603,411l-9.67-15.73Z" style="fill:#e0e0e0"></path><circle cx="615.95" cy="418.19" r="4.94" style="fill:#263238"></circle><path d="M565.19,393s-.13.32-.42.95l-1.23,2.8c-1.06,2.46-2.56,6.13-4.39,10.88l-.71,1.84a4.4,4.4,0,0,1-1,1.85,2.85,2.85,0,0,1-2.06.78h-2.28L543,412l-24.61-.09-142.53-.7L328.43,411h-.26v-.25c0-39.58.06-74.46.08-100.71h0c1.77-16.59,3.19-29.87,4.17-39,.5-4.56.88-8.09,1.14-10.49.14-1.19.24-2.09.31-2.71s.13-.92.13-.92,0,.31-.08.92-.14,1.53-.26,2.72c-.24,2.4-.59,5.93-1.05,10.5-.94,9.15-2.3,22.43-4,39v0c0,26.25,0,61.13.08,100.71l-.25-.26,47.44.25,142.53.86,24.62.17,10.09.08c1.52-.07,3.17.36,4.18-.7a4.19,4.19,0,0,0,1-1.76q.38-.93.72-1.83c1.86-4.75,3.39-8.4,4.48-10.86S565.19,393,565.19,393Z" style="fill:#263238"></path><path d="M636.52,329.57c0,.15-50.51.26-112.8.26s-112.81-.11-112.81-.26,50.5-.26,112.81-.26S636.52,329.43,636.52,329.57Z" style="fill:#263238"></path><path d="M372.14,322.61c0,.15-7,.27-15.6.27s-15.6-.12-15.6-.27,7-.26,15.6-.26S372.14,322.47,372.14,322.61Z" style="fill:#fff"></path><path d="M492.62,322.61c0,.15-12.94.27-28.9.27s-28.9-.12-28.9-.27,12.94-.26,28.9-.26S492.62,322.47,492.62,322.61Z" style="fill:#fff"></path><path d="M661.4,321.8c0,.14-24.72.26-55.21.26S551,321.94,551,321.8s24.72-.26,55.23-.26S661.4,321.66,661.4,321.8Z" style="fill:#fff"></path><path d="M690.86,364.56a2.92,2.92,0,0,1-.61.05l-1.75.05-6.46.08-2.14,0a14.7,14.7,0,0,1-2.36-.08A4.46,4.46,0,0,1,674,361a8.37,8.37,0,0,1-.07-1.4v-1.4c0-.95,0-1.91,0-2.89V343.21c0-1,0-1.95,0-2.89a17.66,17.66,0,0,1,.11-2.81,4.47,4.47,0,0,1,3.71-3.46,20.91,20.91,0,0,1,2.35-.05l2.14,0,6.45.08,1.76,0a4.19,4.19,0,0,1,.61.05,2.45,2.45,0,0,1-.61.06l-1.76.05-6.45.08-2.14,0a21.89,21.89,0,0,0-2.29.06,4,4,0,0,0-3.3,3.14,18.26,18.26,0,0,0-.09,2.71c0,.94,0,1.9,0,2.89,0,2,0,4,0,6.07s0,4.11,0,6.07c0,1,0,1.94,0,2.89v1.4a8.06,8.06,0,0,0,.05,1.32,4,4,0,0,0,3.15,3.3,15.62,15.62,0,0,0,2.27.1H682l6.46.09,1.75.05A2.25,2.25,0,0,1,690.86,364.56Z" style="fill:#263238"></path><path d="M691,367.84a3.52,3.52,0,0,1-.74.06l-2.11.05-7.78.08-2.58,0a15.29,15.29,0,0,1-2.83-.12,5.35,5.35,0,0,1-4.13-4.43,11.93,11.93,0,0,1-.07-1.68v-1.69c0-1.14,0-2.3,0-3.48V342c0-1.18,0-2.35,0-3.48v-1.69a8.78,8.78,0,0,1,.11-1.69,5.36,5.36,0,0,1,4.34-4.22,21,21,0,0,1,2.83-.07l2.58,0,7.78.08,2.11,0a3.24,3.24,0,0,1,.74.05,3.24,3.24,0,0,1-.74.05l-2.11.05-7.78.08-2.58,0a23.21,23.21,0,0,0-2.76.09,4.92,4.92,0,0,0-3.94,3.89,27.11,27.11,0,0,0-.09,3.29c0,1.13,0,2.3,0,3.48,0,2.36,0,4.81,0,7.31s0,5,0,7.32c0,1.18,0,2.34,0,3.48v1.69a10.59,10.59,0,0,0,.06,1.61,4.91,4.91,0,0,0,3.74,4.08,14.76,14.76,0,0,0,2.74.13l2.58,0,7.78.08,2.11.05A6,6,0,0,1,691,367.84Z" style="fill:#263238"></path><path d="M691.26,353.39a136.47,136.47,0,0,1-16.84,0,136.47,136.47,0,0,1,16.84,0Z" style="fill:#263238"></path><path d="M675.19,352.56,690.1,335.1H679.68a4.53,4.53,0,0,0-4.53,4.53Z" style="fill:#fff;opacity:0.30000000000000004"></path><path d="M660.18,379.64c0-.14,7.36-.26,16.44-.26s16.44.12,16.44.26-7.36.26-16.44.26S660.18,379.79,660.18,379.64Z" style="fill:#263238"></path><path d="M556.79,410.67c5.07-13.16,14.05-29.68,25-38.57s24.92-14.32,39-13.87a47.59,47.59,0,0,1,36.27,19.09,4.53,4.53,0,0,0,1.7,1.64,2.69,2.69,0,0,0,3-.64,2.8,2.8,0,0,0-.13-2.54c-3.79-9.29-13.59-15.95-23-19.46a65.48,65.48,0,0,0-31.75-2.87c-23.1,4-40.92,20-49.52,41.84" style="fill:#e0e0e0"></path><path d="M468.72,236.71h-1.23l-3.61-.06L450,236.37l-51.54-1.08a8.85,8.85,0,0,0-6.92,3.92,8.7,8.7,0,0,0-1.44,4c-.12,1.44-.19,2.94-.29,4.43q-.56,9-1.15,18.69c-.8,12.95-1.65,26.82-2.55,41.48,0,29.39,0,61.94,0,96.5l-.26-.26,39.53.11,94.66.27-.23.16a140.61,140.61,0,0,0,7.39-29.49,219.66,219.66,0,0,0,2.1-28.4c.07-4.57,0-9.05-.16-13.43s-.15-8.69-1-12.77a69,69,0,0,0-3.45-11.68,95.76,95.76,0,0,0-4.78-10.53l0,0-51.17-61.58s.33.34.95,1l2.68,3.13L482.57,253c8.86,10.6,21.68,26,37.6,45h0v0A95.35,95.35,0,0,1,525,308.65a70.28,70.28,0,0,1,3.5,11.75c.24,1,.34,2.07.51,3.12s.21,2.13.26,3.2c.1,2.14.21,4.31.28,6.5.16,4.39.24,8.87.18,13.45a220.4,220.4,0,0,1-2.07,28.46,142,142,0,0,1-7.4,29.61l-.06.16H520l-94.66-.25-39.53-.11h-.25v-.26c0-34.56,0-67.12,0-96.51.92-14.67,1.79-28.54,2.6-41.49q.62-9.7,1.19-18.69c.1-1.5.16-3,.3-4.45a9,9,0,0,1,1.5-4.13,9.19,9.19,0,0,1,7.2-4.06L450,236.19l13.89.36,3.6.11C468.31,236.68,468.72,236.71,468.72,236.71Z" style="fill:#263238"></path><path d="M415.83,318.53H390.61a1.36,1.36,0,0,1-1.36-1.36h0a1.36,1.36,0,0,1,1.36-1.36h25.22a1.36,1.36,0,0,1,1.36,1.36h0A1.36,1.36,0,0,1,415.83,318.53Z" style="fill:#e0e0e0"></path><path d="M415.83,318.53a3.09,3.09,0,0,0,.56-.18,1.3,1.3,0,0,0,.69-1.35,1.24,1.24,0,0,0-.63-.9,1.17,1.17,0,0,0-.62-.16h-.76l-3.6,0-20.86.08a1.11,1.11,0,0,0-1,.62,1.09,1.09,0,0,0,.11,1.14,1.18,1.18,0,0,0,1.1.44h1.45l5.54,0,9.38,0,6.32.09,1.72,0a2.27,2.27,0,0,1,.59.06,2.7,2.7,0,0,1-.59.05l-1.72.05-6.32.08-9.38.06h-7a1.68,1.68,0,0,1-1.51-.64,1.6,1.6,0,0,1-.17-1.68,1.62,1.62,0,0,1,1.46-.91l20.86.07,3.6,0h.76a1.52,1.52,0,0,1,.74.21,1.46,1.46,0,0,1,.71,1.09,1.42,1.42,0,0,1-.84,1.47A1,1,0,0,1,415.83,318.53Z" style="fill:#263238"></path><path d="M413.82,323.21a5.73,5.73,0,0,1-1.83,1.08,14.62,14.62,0,0,1-10.09.62,5.39,5.39,0,0,1-1.94-.86,22.42,22.42,0,0,0,7,.93C410.92,324.77,413.75,323,413.82,323.21Z" style="fill:#263238"></path><path d="M341.16,236.72c0-.14,11.61-.26,25.93-.26s25.94.12,25.94.26-11.61.26-25.94.26S341.16,236.87,341.16,236.72Z" style="fill:#263238"></path><path d="M451.17,269.51c.08.12-5.3,4-12,8.62s-12.22,8.31-12.3,8.19,5.29-4,12-8.62S451.09,269.39,451.17,269.51Z" style="fill:#fff"></path><path d="M452.15,257.83c.09.12-7.49,5.83-16.92,12.76S418.09,283,418,282.93s7.49-5.83,16.92-12.76S452.07,257.72,452.15,257.83Z" style="fill:#fff"></path><path d="M369.78,269.79c.08.12-4.5,3.18-10.23,6.84S349.1,283.15,349,283s4.51-3.19,10.25-6.84S369.71,269.67,369.78,269.79Z" style="fill:#fff"></path><path d="M368.07,262.5a105.07,105.07,0,0,1-8.55,6.11c-4.81,3.25-8.77,5.79-8.85,5.67s3.75-2.85,8.55-6.1S368,262.38,368.07,262.5Z" style="fill:#fff"></path><path d="M496.09,287.15c0,.09,9.57,8.69,9.57,8.69L503.18,300l-10.57-6.41Z" style="fill:#263238"></path><rect x="472.38" y="280.89" width="26.76" height="18.16" rx="9.08" style="fill:#FF725E"></rect><path d="M490.06,299.05a13,13,0,0,0,2.83-.56,8.87,8.87,0,0,0,2.91-1.68,9,9,0,0,0,2.53-3.6,8.86,8.86,0,0,0-3-10.3,8.77,8.77,0,0,0-3-1.44,11.57,11.57,0,0,0-3.46-.32h-7.48a8.86,8.86,0,0,0-2.2,17.43,18,18,0,0,0,4.46.33l3.42,0,2.16.05a4.48,4.48,0,0,1,.76.05,3.75,3.75,0,0,1-.76.06l-2.16,0-3.42.05-2.14,0a9.76,9.76,0,0,1-2.41-.28,9.27,9.27,0,0,1-7-8.77,9.34,9.34,0,0,1,9.31-9.54h7.48a12,12,0,0,1,3.59.35A9.25,9.25,0,0,1,496,297a9,9,0,0,1-5.18,2A3.33,3.33,0,0,1,490.06,299.05Z" style="fill:#263238"></path><path d="M684.86,418.19a7.91,7.91,0,0,1-1.43.12l-3.9.16-5.8.16-.83,0a2.31,2.31,0,0,1-.92-.07,1.69,1.69,0,0,1-1.15-1.54c-.06-1.18-.13-2.41-.24-3.66a105.57,105.57,0,0,0-1.87-12.71c-.33-1.61-.64-2.91-.85-3.81a8.36,8.36,0,0,1-.28-1.41,7.12,7.12,0,0,1,.48,1.36c.26.89.63,2.17,1,3.78a87.16,87.16,0,0,1,2,12.75c.11,1.26.18,2.49.23,3.67a1.19,1.19,0,0,0,.8,1.1,2.23,2.23,0,0,0,.76.06l.82,0,5.79,0h3.91A7.56,7.56,0,0,1,684.86,418.19Z" style="fill:#263238"></path></g></svg>
