<svg xmlns="http://www.w3.org/2000/svg" viewBox="0 0 750 500"><g id="freepik--Floor--inject-2"><rect x="43.3" y="433.1" width="658.32" height="1" style="fill:#263238"></rect></g><g id="freepik--pick-up-truck--inject-2"><path d="M589.27,397.7V333.61H269.44V397.7H402c.11,19.7,13.79,35.62,30.65,35.62h16.56c12.93,0,24-9.37,28.49-22.63H550V402H479.65c.15-1.4.23-2.83.24-4.28Z" style="fill:#263238"></path><path d="M449.24,433.82H432.68c-16.92,0-30.8-15.93-31.15-35.62H268.94V333.11H589.77V398.2H480.39c0,1.09-.09,2.19-.19,3.28h70.33v9.71H478.09C473.28,425,462,433.82,449.24,433.82ZM269.94,397.2H402.52v.5c.11,19.37,13.64,35.12,30.15,35.12h16.56c12.42,0,23.42-8.75,28-22.29l.11-.34h72.16v-7.71H479.09l.06-.55c.15-1.41.23-2.83.24-4.23v-.5H588.77V334.11H269.94Z" style="fill:#263238"></path><path d="M226.65,397.45c0-19.81-13.73-35.87-30.66-35.87H179.43c-16.93,0-30.66,16.06-30.66,35.87s13.73,35.87,30.66,35.87H196c12.93,0,24-9.37,28.49-22.63h72.3V402H226.4A42.1,42.1,0,0,0,226.65,397.45Z" style="fill:#263238"></path><path d="M196,433.82H179.43c-17.18,0-31.16-16.31-31.16-36.37s14-36.37,31.16-36.37H196c17.18,0,31.16,16.31,31.16,36.37,0,1.3-.07,2.65-.2,4h70.33v9.71H224.84C220,425,208.74,433.82,196,433.82Zm-16.56-71.74c-16.63,0-30.16,15.87-30.16,35.37s13.53,35.37,30.16,35.37H196c12.42,0,23.42-8.75,28-22.29l.12-.34h72.15v-7.71H225.84l.06-.55a40.9,40.9,0,0,0,.25-4.48c0-19.5-13.53-35.37-30.16-35.37Z" style="fill:#263238"></path><path d="M344.77,397.45c0-12.67-5.62-23.8-14.1-30.19v-5.68H314.11c-16.93,0-30.66,16.06-30.66,35.87s13.73,35.87,30.66,35.87h16.56v-5.68C339.15,421.25,344.77,410.12,344.77,397.45Z" style="fill:#263238"></path><path d="M331.17,433.82H314.11c-17.18,0-31.16-16.31-31.16-36.37s14-36.37,31.16-36.37h17.06V367c8.83,6.75,14.1,18.11,14.1,30.43s-5.27,23.68-14.1,30.43Zm-17.06-71.74C297.48,362.08,284,378,284,397.45s13.53,35.37,30.16,35.37h16.06v-5.43l.19-.15c8.71-6.55,13.91-17.69,13.91-29.79s-5.2-23.24-13.91-29.79l-.19-.15v-5.43Z" style="fill:#263238"></path><ellipse cx="330.67" cy="397.45" rx="30.66" ry="35.87" style="fill:#fff"></ellipse><path d="M330.67,433.82c-17.19,0-31.16-16.31-31.16-36.37s14-36.37,31.16-36.37,31.16,16.31,31.16,36.37S347.85,433.82,330.67,433.82Zm0-71.74c-16.64,0-30.16,15.87-30.16,35.37s13.52,35.37,30.16,35.37,30.16-15.86,30.16-35.37S347.3,362.08,330.67,362.08Z" style="fill:#263238"></path><ellipse cx="330.67" cy="397.45" rx="20.55" ry="24.05" style="fill:#263238"></ellipse><path d="M330.67,422c-11.61,0-21.06-11-21.06-24.55s9.45-24.55,21.06-24.55,21.05,11,21.05,24.55S342.27,422,330.67,422Zm0-48.1c-11.06,0-20.06,10.57-20.06,23.55s9,23.55,20.06,23.55,20.05-10.57,20.05-23.55S341.72,373.9,330.67,373.9Z" style="fill:#263238"></path><ellipse cx="330.67" cy="397.45" rx="17.91" ry="20.96" style="fill:#bababa"></ellipse><path d="M330.67,418.91c-10.16,0-18.42-9.63-18.42-21.46S320.51,376,330.67,376s18.41,9.63,18.41,21.46S340.82,418.91,330.67,418.91Zm0-41.92c-9.6,0-17.42,9.18-17.42,20.46s7.82,20.46,17.42,20.46,17.41-9.18,17.41-20.46S340.27,377,330.67,377Z" style="fill:#263238"></path><path d="M559.69,397.45c0-12.67-5.62-23.8-14.1-30.19v-5.68H529c-16.94,0-30.66,16.06-30.66,35.87s13.72,35.87,30.66,35.87h16.56v-5.68C554.07,421.25,559.69,410.12,559.69,397.45Z" style="fill:#263238"></path><path d="M546.09,433.82H529c-17.18,0-31.16-16.31-31.16-36.37s14-36.37,31.16-36.37h17.06V367c8.83,6.75,14.1,18.11,14.1,30.43s-5.27,23.68-14.1,30.43ZM529,362.08c-16.63,0-30.16,15.87-30.16,35.37S512.4,432.82,529,432.82h16.06v-5.43l.19-.15c8.71-6.55,13.91-17.69,13.91-29.79s-5.2-23.24-13.91-29.79l-.19-.15v-5.43Z" style="fill:#263238"></path><ellipse cx="545.59" cy="397.45" rx="30.66" ry="35.87" style="fill:#fff"></ellipse><path d="M545.59,433.82c-17.19,0-31.17-16.31-31.17-36.37s14-36.37,31.17-36.37,31.16,16.31,31.16,36.37S562.77,433.82,545.59,433.82Zm0-71.74c-16.64,0-30.17,15.87-30.17,35.37s13.53,35.37,30.17,35.37,30.16-15.86,30.16-35.37S562.22,362.08,545.59,362.08Z" style="fill:#263238"></path><ellipse cx="545.59" cy="397.45" rx="20.55" ry="24.05" style="fill:#263238"></ellipse><path d="M545.59,422c-11.61,0-21.06-11-21.06-24.55S534,372.9,545.59,372.9s21,11,21,24.55S557.19,422,545.59,422Zm0-48.1c-11.06,0-20.06,10.57-20.06,23.55s9,23.55,20.06,23.55,20-10.57,20-23.55S556.64,373.9,545.59,373.9Z" style="fill:#263238"></path><ellipse cx="545.59" cy="397.45" rx="17.91" ry="20.96" style="fill:#bababa"></ellipse><path d="M545.59,418.91c-10.16,0-18.42-9.63-18.42-21.46S535.43,376,545.59,376,564,385.62,564,397.45,555.74,418.91,545.59,418.91Zm0-41.92c-9.61,0-17.42,9.18-17.42,20.46s7.81,20.46,17.42,20.46S563,408.73,563,397.45,555.19,377,545.59,377Z" style="fill:#263238"></path><path d="M286,385.92l6-23.37a17.75,17.75,0,0,1,17.18-13.31h32.94a17.73,17.73,0,0,1,16.54,11.34L373,397.63h84.07V309.24l-11.44-16.07H184.47a35,35,0,0,0-10.9,1.65c-3.69,1.2-7.76,3.27-10.22,6.78C158,309.27,158,313.1,158,313.1s-31.32,2.3-39,6.9-2.3,8.43,1.53,18.39,5.36,13.8,5.36,20.7-4.59,26.83-4.59,26.83H286" style="fill:#CECECE"></path><path d="M457.56,398.13H372.65L358.2,360.76a17.34,17.34,0,0,0-16.07-11H309.19a17.23,17.23,0,0,0-16.69,12.93l-6.12,23.75H120.68l.14-.61c0-.2,4.58-20,4.58-26.72s-1.48-10.53-5.08-19.88l-.25-.64a69.09,69.09,0,0,0-3-6.52c-2.67-5.31-4.44-8.82,1.66-12.48,7.28-4.37,34.85-6.63,38.78-6.94.16-1.25,1-5,5.41-11.32,2.14-3.05,5.66-5.39,10.47-7a35.6,35.6,0,0,1,11.06-1.67H445.88l11.68,16.41Zm-84.22-1h83.22V309.4l-11.2-15.73H184.47a34.84,34.84,0,0,0-10.75,1.62c-4.59,1.51-7.95,3.73-10,6.6-5.17,7.39-5.27,11.17-5.27,11.21v.46l-.46,0c-.31,0-31.28,2.34-38.76,6.83-5.3,3.18-4,5.68-1.28,11.17a71.1,71.1,0,0,1,3,6.61l.24.64c3.65,9.48,5.15,13.4,5.15,20.24,0,6.28-3.68,22.87-4.47,26.33H285.61l5.92-23a18.24,18.24,0,0,1,17.66-13.68h32.94a18.32,18.32,0,0,1,17,11.66Z" style="fill:#263238"></path><path d="M457.06,309.24v88.49h36.25l2.87-11.81,6-23.37a17.74,17.74,0,0,1,17.17-13.31h33a17.75,17.75,0,0,1,16.54,11.34l13.53,37.15h38.89a9.85,9.85,0,0,0,9.84-9.84L623.88,318a8.71,8.71,0,0,0-8.71-8.71Z" style="fill:#CECECE"></path><path d="M621.28,398.23H582l-13.65-37.48a17.35,17.35,0,0,0-16.07-11h-33a17.22,17.22,0,0,0-16.68,12.93l-6,23.37-3,12.19H456.56V308.74H615.17a9.22,9.22,0,0,1,9.21,9.21l7.24,69.88A10.37,10.37,0,0,1,621.28,398.23Zm-38.54-1h38.54a9.35,9.35,0,0,0,9.34-9.34L623.38,318a8.23,8.23,0,0,0-8.21-8.26H457.56v87.49h35.36l2.78-11.43,6-23.38a18.22,18.22,0,0,1,17.65-13.68h33a18.33,18.33,0,0,1,17,11.66Z" style="fill:#263238"></path><path d="M238.69,343.53l-2.52,0H147.72l-.14-.27s-1.49-2.91-3-6.72c-1.71-4.28,1.87-9.65,3.05-11.42,1.53-2.29,9.65-11.9,10-12.3l.76.64c-.09.1-8.43,10-9.93,12.22-1.11,1.66-4.47,6.7-2.95,10.49,1.24,3.09,2.44,5.57,2.84,6.36h87.84l1.49,0a8.66,8.66,0,0,0-1-2.85,27.08,27.08,0,0,1-1.2-2.46c-.71-1.66-1.4-3.12-2-4.4-2.73-5.76-4.1-8.66,1.16-13.18,2.43-2.1,8-3.88,16.7-5.28a138.87,138.87,0,0,1,22.32-1.74h60.49l-5.39-17.43,1-.29,5.78,18.72H273.63a139.2,139.2,0,0,0-22.16,1.72c-8.35,1.36-13.95,3.11-16.21,5.06-4.68,4-3.57,6.36-.91,12,.61,1.29,1.31,2.76,2,4.44a24.1,24.1,0,0,0,1.16,2.37,8.71,8.71,0,0,1,1.16,3.84Z" style="fill:#263238"></path><ellipse cx="250.08" cy="337.96" rx="6.83" ry="11.1" style="fill:#fff"></ellipse><path d="M250.08,349.56c-4,0-7.33-5.2-7.33-11.6s3.29-11.6,7.33-11.6,7.33,5.2,7.33,11.6S254.12,349.56,250.08,349.56Zm0-22.2c-3.49,0-6.33,4.75-6.33,10.6s2.84,10.6,6.33,10.6,6.33-4.76,6.33-10.6S253.57,327.36,250.08,327.36Z" style="fill:#263238"></path><path d="M255.12,354.07a4.46,4.46,0,0,1-2.56-.73l.58-.82a4.48,4.48,0,0,0,4.25,0c1.86-.9,3-2.8,3.08-5.34.29-6.18-6.54-21.29-8.47-22.39s-11.91-.8-13.53.82c-.94.94,2,7,5.2,12.06l-.84.54c-1.68-2.64-7-11.37-5.06-13.31s12.35-2.34,14.73-1,9.26,17.1,9,23.3c-.19,4-2.36,5.58-3.64,6.2A6.25,6.25,0,0,1,255.12,354.07Z" style="fill:#263238"></path><ellipse cx="131.31" cy="337.96" rx="6.83" ry="11.1" style="fill:#fff"></ellipse><path d="M131.31,349.56c-4,0-7.33-5.2-7.33-11.6s3.29-11.6,7.33-11.6,7.33,5.2,7.33,11.6S135.35,349.56,131.31,349.56Zm0-22.2c-3.49,0-6.33,4.75-6.33,10.6s2.84,10.6,6.33,10.6,6.33-4.76,6.33-10.6S134.8,327.36,131.31,327.36Z" style="fill:#263238"></path><path d="M136.35,354.07a4.46,4.46,0,0,1-2.56-.73l.58-.82a4.51,4.51,0,0,0,4.25,0c1.86-.9,3-2.8,3.08-5.34.29-6.18-6.54-21.29-8.47-22.39s-11.91-.79-13.53.82c-.94.94,2,7,5.2,12.06l-.84.54c-1.68-2.64-7-11.37-5.06-13.31s12.35-2.34,14.73-1,9.26,17.1,9,23.3c-.19,4-2.36,5.58-3.64,6.2A6.25,6.25,0,0,1,136.35,354.07Z" style="fill:#263238"></path><polygon points="166.19 376.98 183.8 376.98 179.73 350.53 162.12 350.53 166.19 376.98" style="fill:#263238"></polygon><path d="M184.39,377.48H165.76L161.54,350h18.62Zm-17.77-1h16.6L179.3,351H162.71Z" style="fill:#263238"></path><polygon points="200.38 350.53 182.77 350.53 186.84 376.98 204.45 376.98 200.38 350.53" style="fill:#263238"></polygon><path d="M205,377.48H186.41L182.18,350h18.63Zm-17.76-1h16.59L200,351h-16.6Z" style="fill:#263238"></path><path d="M159.09,350.53h-5.45a6,6,0,0,0-5.8,4.5l-3.7,14.48a6,6,0,0,0,5.8,7.47h13.22Z" style="fill:#263238"></path><path d="M163.74,377.48h-13.8a6.49,6.49,0,0,1-6.29-8.09l3.71-14.48a6.48,6.48,0,0,1,6.28-4.88h5.88ZM153.64,351a5.48,5.48,0,0,0-5.31,4.13l-3.71,14.48a5.48,5.48,0,0,0,5.32,6.84h12.63L158.66,351Z" style="fill:#263238"></path><polygon points="221.02 350.53 203.41 350.53 207.48 376.98 225.09 376.98 221.02 350.53" style="fill:#263238"></polygon><path d="M225.67,377.48H207.05L202.83,350h18.62Zm-17.76-1h16.6L220.59,351H204Z" style="fill:#263238"></path><path d="M245,369.07l-4.94-14.49a6,6,0,0,0-5.66-4.05H224.06L228.13,377h11.19A6,6,0,0,0,245,369.07Z" style="fill:#263238"></path><path d="M239.32,377.48H227.7L223.47,350h10.92a6.48,6.48,0,0,1,6.13,4.39l4.94,14.48a6.48,6.48,0,0,1-6.14,8.58Zm-10.76-1h10.76a5.48,5.48,0,0,0,5.19-7.25l-4.93-14.48a5.49,5.49,0,0,0-5.19-3.72h-9.75Z" style="fill:#263238"></path><path d="M289.51,387.46c-.47-3.7-4.43-6.61-6.5-7.9H120.65c-2.06,1.29-6,4.2-6.5,7.9-.64,5,1.3,9.33,5.17,11.48h165C288.22,396.79,290.16,392.48,289.51,387.46Z" style="fill:#bababa"></path><path d="M284.48,399.44H119.19l-.12-.06c-4.06-2.26-6.08-6.74-5.41-12,.49-3.84,4.43-6.82,6.73-8.25l.12-.08H283.16l.12.08c2.3,1.43,6.24,4.41,6.73,8.25h0c.67,5.25-1.35,9.73-5.41,12Zm-165-1H284.22c3.62-2.07,5.41-6.14,4.8-10.92h0c-.43-3.37-4-6.09-6.15-7.46H120.8c-2.17,1.37-5.72,4.09-6.15,7.46C114,392.3,115.83,396.37,119.45,398.44Z" style="fill:#263238"></path><rect x="348.91" y="312.14" width="102.85" height="1" style="fill:#263238"></rect><path d="M445.62,293.17l-13.81-50.83a31.08,31.08,0,0,0-7.38-13.18h0A24.1,24.1,0,0,0,409,221.7l-12.89-1.1c-50.4-1.86-93.37.42-123.13,4.56h0a9.15,9.15,0,0,0-1.94,1,26.1,26.1,0,0,0-11,13.2l-20.36,53.35Z" style="fill:#CECECE"></path><path d="M446.27,293.67h-.65l-206.7-.52,20.61-54a26.68,26.68,0,0,1,11.23-13.45,9,9,0,0,1,2.09-1C306.24,220,350,218.4,396.1,220.1L409,221.21a24.54,24.54,0,0,1,15.77,7.61,31.69,31.69,0,0,1,7.51,13.39Zm-205.9-1.51,204.59.51-13.63-50.2a30.57,30.57,0,0,0-7.27-13,23.55,23.55,0,0,0-15.13-7.31L396,221.1c-46-1.7-89.72-.08-123,4.55a10.55,10.55,0,0,0-1.75.89,25.68,25.68,0,0,0-10.8,13Z" style="fill:#263238"></path><path d="M247.58,280.58,265,236c1.42-3.62,4.52-5.94,7.94-5.94l15.62-1a243.78,243.78,0,0,1,30.1-.16l21.34,1.2c6.31,0,12,4.58,14.15,11.48l10.37,32.76a14.7,14.7,0,0,1-3,14.28h0a10.31,10.31,0,0,1-9.07,3.36c-11.49-1.69-39.79-5.45-61.37-4.73a310.42,310.42,0,0,0-37.08,3.5C249.22,291.47,245.56,285.75,247.58,280.58Z" style="fill:#263238"></path><path d="M353.94,292.56a11.07,11.07,0,0,1-1.51-.11c-11.22-1.66-39.66-5.45-61.28-4.73a311.85,311.85,0,0,0-37,3.49,6.15,6.15,0,0,1-5.82-2.4,8.49,8.49,0,0,1-1.19-8.41l17.46-44.57c1.49-3.8,4.79-6.26,8.4-6.26l15.59-1a246.74,246.74,0,0,1,30.16-.16l21.33,1.2h0c6.48,0,12.35,4.76,14.59,11.83L365,274.16A15.14,15.14,0,0,1,362,288.93,11,11,0,0,1,353.94,292.56Zm-57.14-5.93c20.75,0,45.49,3.31,55.78,4.83a9.85,9.85,0,0,0,8.64-3.21,14.13,14.13,0,0,0,2.86-13.79L353.71,241.7c-2.11-6.66-7.6-11.13-13.67-11.13l-21.37-1.2a244.79,244.79,0,0,0-30,.16l-15.61,1a8.29,8.29,0,0,0-7.51,5.63l-17.46,44.56-.47-.18.47.18a7.62,7.62,0,0,0,1,7.43,5.16,5.16,0,0,0,4.89,2,313.3,313.3,0,0,1,37.14-3.5C293,286.66,294.87,286.63,296.8,286.63Z" style="fill:#263238"></path><path d="M354.19,241.55c-1.76-5.56-5.78-9.62-10.59-11l-78.12,58.59c7.33-.86,16.07-1.62,25.66-1.94a269,269,0,0,1,30.67,1.12l38-29Z" style="fill:#fff"></path><path d="M263.7,289.87,343.5,230l.24.07c5.05,1.43,9.13,5.66,10.92,11.31l5.73,18.08-.28.21L322,288.85h-.19a265.27,265.27,0,0,0-30.62-1.12c-8.43.28-17,.93-25.61,1.94Zm80-58.75-76.44,57.33c8-.88,16-1.47,23.86-1.73a263.41,263.41,0,0,1,30.54,1.11l37.56-28.72-5.51-17.41C352.05,236.46,348.32,232.52,343.7,231.12Z" style="fill:#263238"></path><path d="M253.51,265.46l48.33-36.95q-6.63.08-13.24.52l-12.19.81L263.48,240Z" style="fill:#fff"></path><path d="M252.39,267l10.68-27.27,13.15-10.33,12.35-.82c4.3-.29,8.77-.46,13.26-.52l1.51,0ZM263.9,240.3,254.62,264l45.71-35c-4,.08-7.89.24-11.7.5l-12,.8Z" style="fill:#263238"></path><path d="M415.46,230.86H377.81a11.74,11.74,0,0,0-9.39,4.7h0a11.71,11.71,0,0,0-1.81,10.55L377.81,282a13,13,0,0,0,12.38,9.1h41.07a5.44,5.44,0,0,0,5.22-6.95l-13.86-47.88A7.47,7.47,0,0,0,415.46,230.86Z" style="fill:#263238"></path><path d="M431.26,291.57H390.19a13.4,13.4,0,0,1-12.85-9.45l-11.21-35.86a12.25,12.25,0,0,1,11.68-15.9h37.65a8,8,0,0,1,7.64,5.74L437,284a5.94,5.94,0,0,1-5.7,7.58Zm-53.45-60.21A11.25,11.25,0,0,0,367.08,246l11.21,35.86a12.41,12.41,0,0,0,11.9,8.75h41.07a4.94,4.94,0,0,0,4.74-6.31l-13.87-47.88a7,7,0,0,0-6.67-5Z" style="fill:#263238"></path><path d="M426.67,250.24l-46.29,36.34a13,13,0,0,0,9.81,4.49h7.09L431,265.28Z" style="fill:#fff"></path><path d="M397.45,291.57h-7.26A13.49,13.49,0,0,1,380,286.91l-.34-.4,47.28-37.12,4.66,16.08Zm-16.34-4.93a12.44,12.44,0,0,0,9.08,3.93h6.93l33.33-25.48-4.06-14Z" style="fill:#263238"></path><path d="M629.77,370.68h-7.58s.25,21.54-6,26.95h14.32s4.6-.93,6.9-6.53l0-.05a11.44,11.44,0,0,0,.34-7.2l-3.15-12a1.19,1.19,0,0,0-1.17-1.22Z" style="fill:#bababa"></path><path d="M616.17,398.13h-1.34l1-.88c6-5.2,5.84-26.36,5.84-26.57v-.5h11.75a1.69,1.69,0,0,1,1.67,1.66l3.14,11.88a12,12,0,0,1-.37,7.52c-2.39,5.83-7.09,6.84-7.29,6.88Zm1.19-1h13.07c.49-.12,4.43-1.18,6.5-6.22a11,11,0,0,0,.34-6.93l-3.17-12v-.08a.65.65,0,0,0-.19-.49.68.68,0,0,0-.48-.21H622.69C622.69,374.38,622.43,391.08,617.36,397.13Z" style="fill:#263238"></path><path d="M451.63,389.83H373.36l0-.48c0-.51-2.57-51.83-4.46-63.17-1.83-11-7.85-12.36-7.92-12.37l-.35-.07,0-.37-1.82-18.65h.56c.09,0,9.38-.05,12.39-3.65s2.45-5.93,2.45-5.95c-.54-1.48-13.58-37.58-13.58-44.61,0-7.24,7-11.14,7.28-11.3l.48.88c-.07,0-6.76,3.78-6.76,10.42,0,6.86,13.4,43.95,13.54,44.32,0,.16.67,2.9-2.65,6.88-2.89,3.46-10.48,3.94-12.6,4l1.67,17.22c1.44.47,6.62,2.83,8.33,13.08,1.8,10.81,4.19,57.57,4.46,62.82h76.31V319.18l-5.1-10.87c0-.09-1.92-9.43-4.94-11.84l.63-.78c3.2,2.55,5.09,11.46,5.28,12.36l5.13,11Z" style="fill:#263238"></path><path d="M444.1,308.21H426.22a1.92,1.92,0,0,1-1.92-1.91h0a1.92,1.92,0,0,1,1.92-1.92H444.1A1.92,1.92,0,0,1,446,306.3h0A1.92,1.92,0,0,1,444.1,308.21Z" style="fill:#fff"></path><path d="M444.1,308.71H426.22a2.42,2.42,0,1,1,0-4.83H444.1a2.42,2.42,0,1,1,0,4.83Zm-17.88-3.83a1.42,1.42,0,1,0,0,2.83H444.1a1.42,1.42,0,1,0,0-2.83Z" style="fill:#263238"></path><path d="M362.45,335.71h-49l-5.87,1.79a.89.89,0,0,0,0,1.71l5.84,1.58h49a1.92,1.92,0,0,0,1.91-1.92v-1.25A1.91,1.91,0,0,0,362.45,335.71Z" style="fill:#fff"></path><path d="M362.45,341.29l-49.12,0-5.84-1.58a1.38,1.38,0,0,1,0-2.66l6-1.82h49a2.41,2.41,0,0,1,2.41,2.41v1.25A2.42,2.42,0,0,1,362.45,341.29Zm-48.92-1h48.92a1.42,1.42,0,0,0,1.41-1.42v-1.25a1.41,1.41,0,0,0-1.41-1.41H313.54l-5.8,1.77a.36.36,0,0,0-.27.38.37.37,0,0,0,.28.37Z" style="fill:#263238"></path><path d="M161.07,316.1h42.41s-2.92,3.84-4.62,3.84h-6.81L189,323.76a6.85,6.85,0,0,1-5.34,2.57h-7.16a6.83,6.83,0,0,1-6.25-4.1l-1.19-2.72h-2.34a6.17,6.17,0,0,1-5-2.51Z" style="fill:#fff"></path><path d="M183.65,326.83h-7.16a7.33,7.33,0,0,1-6.71-4.4L168.72,320h-2a6.72,6.72,0,0,1-5.38-2.71l-1.25-1.7h44.41l-.61.81c-.31.41-3.12,4-5,4h-6.57l-2.91,3.64A7.33,7.33,0,0,1,183.65,326.83ZM162.06,316.6l.08.11a5.71,5.71,0,0,0,4.57,2.3h2.67l1.32,3a6.32,6.32,0,0,0,5.79,3.8h7.16a6.31,6.31,0,0,0,4.95-2.38l3.21-4h7.05c.87,0,2.45-1.52,3.58-2.84Z" style="fill:#263238"></path><path d="M172.11,319h15.56s-1.07,4-3.22,4.83-9.65,0-9.65,0A4.94,4.94,0,0,1,172.11,319Z" style="fill:#263238"></path><path d="M181,324.72c-2.81,0-6-.33-6.21-.35l-.15-.05a5.47,5.47,0,0,1-3-5.32l0-.46h16.67l-.16.63c0,.17-1.17,4.28-3.53,5.17A12.37,12.37,0,0,1,181,324.72Zm-6-1.34c2.13.22,7.69.64,9.34,0,1.31-.49,2.27-2.58,2.72-3.86H172.6A4.44,4.44,0,0,0,174.94,323.38Z" style="fill:#263238"></path><path d="M263.22,394c-32.36,2.48-51.65-5-102.05-5-26.2,0-39.28,3-45.81,5.93a9.89,9.89,0,0,0,4,4h165a10.23,10.23,0,0,0,5.14-7.68C283.2,392.13,274.66,393.09,263.22,394Z" style="fill:#fff"></path><path d="M284.48,399.44H119.19l-.12-.06a10.47,10.47,0,0,1-4.15-4.22l-.25-.48.49-.21c6.12-2.73,19.07-6,46-6a501.6,501.6,0,0,1,56.52,3.29c15.5,1.59,28.89,3,45.49,1.69h0c10-.77,18.85-1.68,26.24-2.71l.66-.09-.09.66a10.75,10.75,0,0,1-5.39,8.05Zm-165-1H284.22a9.66,9.66,0,0,0,4.66-6.59c-7.27,1-15.89,1.86-25.62,2.61h0c-16.7,1.29-30.12-.09-45.67-1.69a502.81,502.81,0,0,0-56.42-3.28c-26,0-38.87,3-45.1,5.67A9.32,9.32,0,0,0,119.45,398.44Z" style="fill:#263238"></path><path d="M348.58,397.45c0-.55,0-1.09-.07-1.62-5.7-2.11-13-3.25-17.84,1.62-4.19,4.19-10.79,6.42-16.68,7.61,2.6,7.8,9.08,13.35,16.68,13.35C340.56,418.41,348.58,409,348.58,397.45Z" style="fill:#263238"></path><path d="M330.67,418.91c-7.65,0-14.38-5.38-17.15-13.7l-.18-.53.55-.11c7.44-1.51,13-4,16.42-7.47,4.08-4.08,10.43-4.68,18.37-1.74l.3.11,0,.32c0,.55.07,1.1.07,1.66C349.08,409.28,340.82,418.91,330.67,418.91Zm-16-13.48c2.74,7.6,9,12.48,16,12.48,9.6,0,17.41-9.18,17.41-20.46,0-.43,0-.85-.05-1.26-5.24-1.89-12.33-3.07-17,1.61C327.51,401.31,322,403.88,314.65,405.43Z" style="fill:#263238"></path><path d="M563.41,399.47c-7.11-4.6-17.48-4.48-23.92,2a16.06,16.06,0,0,1-10.14,4.84c2.85,7.16,9,12.14,16.24,12.14C554.89,418.41,562.54,410.1,563.41,399.47Z" style="fill:#263238"></path><path d="M545.59,418.91c-7.14,0-13.69-4.89-16.7-12.46l-.25-.62.67-.06a15.56,15.56,0,0,0,9.83-4.69c6.2-6.2,16.75-7.07,24.54-2l.25.17,0,.29C563,410.57,555.12,418.91,545.59,418.91Zm-15.52-12.22c3,6.84,9,11.22,15.52,11.22,8.92,0,16.32-7.8,17.29-18.18-7.37-4.62-17.23-3.76-23,2.06A16.51,16.51,0,0,1,530.07,406.69Z" style="fill:#263238"></path></g></svg>
