<svg xmlns="http://www.w3.org/2000/svg" viewBox="0 0 750 500"><g id="freepik--Floor--inject-40"><path d="M730,437.81c0,.15-159,.26-355,.26S20,438,20,437.81s158.92-.26,355-.26S730,437.67,730,437.81Z" style="fill:#263238"></path></g><g id="freepik--Car--inject-40"><path d="M438.11,199.56l-24.25.05a1.85,1.85,0,0,1-1.74-2.52L416.77,185a2.73,2.73,0,0,1,2.56-1.76h12.81a2.74,2.74,0,0,1,2.53,1.67L439.81,197A1.86,1.86,0,0,1,438.11,199.56Z" style="fill:#455a64"></path><path d="M430.92,199.56l-24.24.05a1.85,1.85,0,0,1-1.74-2.52L409.59,185a2.73,2.73,0,0,1,2.56-1.76H425a2.75,2.75,0,0,1,2.53,1.67L432.63,197A1.86,1.86,0,0,1,430.92,199.56Z" style="fill:#e0e0e0"></path><path d="M28.2,320.79h1.64a0,0,0,0,1,0,0v2.48a0,0,0,0,1,0,0H28.2A1.19,1.19,0,0,1,27,322.08V322A1.19,1.19,0,0,1,28.2,320.79Z" transform="translate(151.53 23.1) rotate(27.43)" style="fill:#455a64"></path><path d="M25.64,325.38h1.64a0,0,0,0,1,0,0v2.48a0,0,0,0,1,0,0H25.64a1.19,1.19,0,0,1-1.19-1.19v-.1a1.19,1.19,0,0,1,1.19-1.19Z" transform="translate(153.35 24.8) rotate(27.43)" style="fill:#455a64"></path><path d="M23.08,330h1.64a0,0,0,0,1,0,0v2.48a0,0,0,0,1,0,0H23.08a1.19,1.19,0,0,1-1.19-1.19v-.1A1.19,1.19,0,0,1,23.08,330Z" transform="translate(155.18 26.5) rotate(27.43)" style="fill:#455a64"></path><path d="M21.25,335.54h1.64a0,0,0,0,1,0,0V338a0,0,0,0,1,0,0H21.25a1.19,1.19,0,0,1-1.19-1.19v-.1a1.19,1.19,0,0,1,1.19-1.19Z" transform="translate(95.83 7.61) rotate(16.38)" style="fill:#455a64"></path><path d="M37.07,306.54a2.71,2.71,0,0,0-2.65.81c-1.06,1.24-5.67,8.25-5.05,9.49a5.21,5.21,0,0,0,2.55,1.93l6.1-8.43-.9-3.41" style="fill:#455a64"></path><rect x="76.28" y="312.58" width="589.8" height="69.68" style="fill:#263238"></rect><g style="opacity:0.30000000000000004"><rect x="76.28" y="312.58" width="589.8" height="69.68"></rect></g><path d="M734.4,330.16c-.3-2.88-11.81-14-12.5-14.69l0-.08-4.81-26.72-.32-5.4a18,18,0,0,0-.73-4c-1-3.45-.58-6.91.48-8.64a3,3,0,0,0-.27-3.52,3.19,3.19,0,0,0-2.34-1l-13-.37c-7.71-.21-55-6.84-55-6.84s-75.12-31.45-112.12-41.09C501.56,209.39,440.07,205,440.07,205c-13.59-.55-28.83-.65-42.49-.32a256.61,256.61,0,0,0-50.23,6.19l-12.7,2.87a191.11,191.11,0,0,0-32.83,11.68c-11.81,5.45-27.27,12.91-37.52,19-18.34,11-42.72,25.81-43.4,26.22h0l-15.78,2.13s-60.61,6.4-76.92,8.46C113,283.13,77.38,285.86,54,295.66c-5.65,2.37-12.43,6.22-17.09,11-.72.75,1.48,3.45.81,4.26a99.26,99.26,0,0,0-13.36,21.3,42.2,42.2,0,0,0-3.77,14.46c-.44,5.52-1,12.69-1,12.71L23.67,380H20a.15.15,0,0,0-.15.16,7.26,7.26,0,0,0,3.24,5.55l8.77,5.78.07.12.11,3.34.09.13c18.08,8.11,38.06,11.71,59.7,11.33a.15.15,0,0,0,.15-.15l-.18-19.74a62.76,62.76,0,0,1-.33-6.32,61,61,0,0,1,122,0l.34,7.81,1.52,18.26.13.13c4.4,0,128.07-1,144.14-.18s161.22-1.32,164.4-1.36l.09-.05,3.78-4.44a61,61,0,0,1,59.09-76.08c1.89,0,3.76.1,5.61.26a38.78,38.78,0,0,1,8,1.27,60.89,60.89,0,0,1,46.41,70.37l67.48-11.66h0c13.76-4.54,20-20.78,20-20.83h0C734.4,363.53,734.71,333.13,734.4,330.16Z" style="fill:#263238"></path><path d="M569,274.49l-163.07,3.92L230.78,289.65c-3.65,12-4.6,34.2-4.6,50,0,16.91,4.77,49.4,4.77,49.4s236.55.72,246,0,14.72-2,22.34-10.23c6.47-7,54.06-78.5,70.06-103.44Z" style="fill:#f5f5f5"></path><path d="M661.57,284.64s41.83,40.88,72.83,45.52l-.74-1.66-11.79-13.06Z" style="fill:#455a64"></path><path d="M470.77,376.75H282.38a34.44,34.44,0,0,1-22.78-8.62h0l217.66-.7Z" style="fill:#e0e0e0"></path><path d="M643.81,338.41l-.23-.27-.63-.84-1-1.36c-.39-.54-.85-1.16-1.42-1.82a69.22,69.22,0,0,0-10.43-10.37c-1.17-1-2.54-1.91-3.9-2.93s-2.9-1.89-4.44-2.87-3.21-1.88-5-2.67c-.88-.42-1.76-.87-2.67-1.28l-2.82-1.15a68.93,68.93,0,0,0-12.36-3.58,67.48,67.48,0,0,0-39.67,4.53l-2.77,1.26c-.9.44-1.76.92-2.63,1.37-1.75.86-3.31,1.93-4.89,2.85s-3,2-4.33,3-2.65,2-3.79,3.07a68.59,68.59,0,0,0-10,10.74c-.55.68-1,1.31-1.36,1.87s-.69,1-1,1.4l-.6.86a1.44,1.44,0,0,1-.22.28s.06-.11.18-.31.32-.52.56-.89l.92-1.42a20.33,20.33,0,0,1,1.32-1.91,65.77,65.77,0,0,1,10-10.9c1.13-1.08,2.47-2,3.79-3.11s2.83-2,4.34-3.08,3.15-2,4.9-2.89c.87-.46,1.74-.95,2.64-1.39l2.79-1.28a69.49,69.49,0,0,1,12.29-4.09,64.56,64.56,0,0,1,27.67-.5,68.78,68.78,0,0,1,12.44,3.63l2.83,1.18c.91.41,1.8.86,2.68,1.29,1.79.8,3.4,1.83,5,2.71s3.07,1.92,4.45,2.91,2.73,1.94,3.9,3A65.91,65.91,0,0,1,640.67,334a21,21,0,0,1,1.4,1.86l1,1.39.59.87A1.15,1.15,0,0,1,643.81,338.41Z" style="fill:#455a64"></path><path d="M733.62,366a7.12,7.12,0,0,1-.85.19l-2.49.46c-2.15.39-5.28.91-9.15,1.51-7.75,1.21-18.48,2.68-30.38,3.9s-22.71,2-30.53,2.37c-3.92.2-7.09.33-9.28.38l-2.52.06a5.35,5.35,0,0,1-.88,0,5.07,5.07,0,0,1,.88-.09l2.52-.16,9.26-.55c7.81-.49,18.61-1.29,30.5-2.51s22.62-2.64,30.37-3.76l9.18-1.34,2.5-.36A4.73,4.73,0,0,1,733.62,366Z" style="fill:#455a64"></path><path d="M645.91,258.87a5.33,5.33,0,0,1,.5,1.11l1.26,3.07a82.69,82.69,0,0,0,4.87,9.76,60.93,60.93,0,0,0,6.37,8.84c1.84,2.1,3.11,3.28,3,3.36a6.43,6.43,0,0,1-.94-.78c-.6-.51-1.4-1.32-2.37-2.33a53,53,0,0,1-6.55-8.82,65.51,65.51,0,0,1-4.76-9.9c-.5-1.31-.87-2.38-1.11-3.13A5.23,5.23,0,0,1,645.91,258.87Z" style="fill:#455a64"></path><path d="M576.93,251s.15.53.42,1.59a14.88,14.88,0,0,1,.25,2,8.62,8.62,0,0,1,0,1.34,10.75,10.75,0,0,1-.11,1.55c-.47,4.38-2.88,10.77-8.09,17.91h0c-7.74,11.94-18.83,29-32.85,50.11-7,10.57-14.75,22.18-23.3,34.61-2.16,3.09-4.33,6.26-6.62,9.43-1.13,1.59-2.28,3.19-3.5,4.77-.6.79-1.18,1.61-1.81,2.39s-1.32,1.55-2,2.3c-2.92,2.78-6,5.62-9.78,7.53a22.22,22.22,0,0,1-6,1.94c-2.1.38-4.24.56-6.38.73-8.63.3-17.47.26-26.56.35l-27.95.11-59.7.13-131.87,0h-.23l0-.22c-1.24-8.65-2.41-17.93-3.37-27.31-.65-6.44-1.2-12.87-1.42-19.28s0-12.78.26-19.09.67-12.57,1.38-18.74c.37-3.09.79-6.16,1.38-9.18a54.2,54.2,0,0,1,2.38-8.89l0,0a16.3,16.3,0,0,1,2-4.63,32.57,32.57,0,0,1,2.91-4.06,58.5,58.5,0,0,1,7-7c5-4.25,10.57-7.69,15.89-11.3a308.8,308.8,0,0,1,32.64-19.3c2.79-1.36,5.52-2.8,8.32-4.07l8.36-3.74c2.79-1.19,5.62-2.26,8.4-3.38,1.4-.54,2.77-1.14,4.19-1.62l4.22-1.46,4.19-1.45c1.4-.48,2.78-1,4.2-1.37l8.39-2.45c2.76-.87,5.58-1.48,8.36-2.15l8.29-2a294.77,294.77,0,0,1,63.37-5.94A426.19,426.19,0,0,1,477,215.68c33.19,4.9,59.06,13,76,20.24,8.5,3.64,14.81,7.08,18.77,9.88a22.53,22.53,0,0,1,4.16,3.57,6.43,6.43,0,0,1,.8,1.15c.13.29.18.44.18.44l-.2-.43a6.8,6.8,0,0,0-.81-1.13,22.7,22.7,0,0,0-4.19-3.52,109,109,0,0,0-18.78-9.8c-17-7.2-42.86-15.22-76-20.07a428.11,428.11,0,0,0-54.82-4.35,295.23,295.23,0,0,0-63.27,6l-8.27,2c-2.78.67-5.59,1.27-8.35,2.15l-8.37,2.45c-1.42.38-2.79.89-4.19,1.37L325.47,227l-4.22,1.45c-1.41.48-2.78,1.09-4.18,1.62-2.77,1.13-5.59,2.2-8.39,3.38l-8.34,3.74c-2.79,1.27-5.51,2.71-8.3,4.06a310,310,0,0,0-32.58,19.29c-5.33,3.62-10.86,7.05-15.84,11.27a58.24,58.24,0,0,0-6.93,6.94,31.89,31.89,0,0,0-2.86,4,16,16,0,0,0-2,4.45v.06a53,53,0,0,0-2.35,8.8c-.59,3-1,6.06-1.37,9.14-.71,6.15-1.13,12.4-1.38,18.7s-.39,12.67-.26,19.05.77,12.81,1.41,19.25c1,9.37,2.14,18.65,3.37,27.28l-.25-.22H362.9l59.7-.09,27.95-.1c9.08-.08,17.95,0,26.53-.32,4.26-.32,8.55-.73,12.27-2.62s6.77-4.68,9.69-7.45c.67-.74,1.31-1.51,2-2.26s1.22-1.59,1.82-2.38c1.21-1.57,2.36-3.17,3.49-4.76,2.3-3.16,4.47-6.33,6.63-9.42,8.56-12.41,16.31-24,23.35-34.56,14-21.13,25.18-38.13,33-50h0c5.2-7.09,7.63-13.46,8.13-17.81a12.3,12.3,0,0,0,.13-1.54,8.62,8.62,0,0,0,0-1.34,13.8,13.8,0,0,0-.23-2C577.05,251.5,576.93,251,576.93,251Z" style="fill:#455a64"></path><path d="M37.68,333S35.75,317.29,51,312s57.34-11.55,57-9.33-37.33,26.37-49.33,29A64,64,0,0,1,37.68,333Z" style="fill:#455a64"></path><path d="M253.59,273.86s37.72-32.56,84.88-45.58,69.39-11,69.39-11l-12.28,53.18-142,7.67Z" style="fill:#455a64"></path><path d="M424.83,271.84l.73,0,2.09-.06,8.06-.2,29.89-.69,101.33-2.23-.25.27a59.87,59.87,0,0,0-1.26-8.22,39.47,39.47,0,0,0-2.61-8c-1.06-2.66-3.28-4.55-5.64-6.19a58.35,58.35,0,0,0-7.59-4.24,150.39,150.39,0,0,0-16.76-6.54c-5.63-1.86-11.23-3.5-16.78-5s-11-2.8-16.41-4-10.68-2.28-15.88-3.15c-10.4-1.77-20.35-3-29.67-4.06q-7-.78-13.51-1.36-3.26-.3-6.37-.53c-.51,0-1.06-.1-1.53-.09a2.72,2.72,0,0,0-1.35.45,2.84,2.84,0,0,0-.91,1.07,3.8,3.8,0,0,0-.29,1.4c-1.62,15.85-2.93,28.67-3.83,37.55-.46,4.44-.82,7.89-1.06,10.25-.13,1.16-.22,2.05-.29,2.67s-.11.92-.11.92,0-.29.07-.88.14-1.49.25-2.65c.22-2.34.54-5.78,1-10.21.86-8.91,2.11-21.78,3.64-37.68a4.16,4.16,0,0,1,.33-1.52,3,3,0,0,1,1-1.23,3.11,3.11,0,0,1,1.54-.52c.56,0,1,.06,1.58.08,2.08.15,4.21.33,6.38.52q6.51.57,13.52,1.33c9.33,1,19.28,2.26,29.7,4,5.21.87,10.52,1.93,15.91,3.14s10.88,2.53,16.43,4,11.17,3.11,16.81,5a155.1,155.1,0,0,1,16.82,6.57,57.45,57.45,0,0,1,7.67,4.29,24.11,24.11,0,0,1,3.38,2.76,11,11,0,0,1,1.4,1.71,18.7,18.7,0,0,1,1,1.92,40.35,40.35,0,0,1,2.65,8.12,62.35,62.35,0,0,1,1.26,8.3l0,.27h-.27l-101.53,2-29.83.54-8,.14-2.06,0Z" style="fill:#455a64"></path><path d="M409.33,278.13l-.79,0-2.29.07c-2,.07-5,.1-8.83.25l-14,.63-18.48,1c-27.38,1.64-65.18,4.32-106.91,7.62s-79.49,6.64-106.79,9.32c-13.65,1.33-24.68,2.54-32.29,3.48-3.81.41-6.75.91-8.75,1.19l-2.27.32-.78.09L108,302l2.26-.37c2-.31,4.93-.84,8.74-1.28,7.61-1,18.64-2.27,32.29-3.65,27.29-2.78,65-6.17,106.78-9.47s79.54-5.92,106.93-7.47l18.48-.95,14-.54c3.84-.12,6.82-.12,8.84-.15l2.29,0Z" style="fill:#455a64"></path><path d="M210.47,291.91c-.07-.05.78-1,2-2.68a39.74,39.74,0,0,0,4.25-6.84,38.27,38.27,0,0,0,2.69-7.6,33.11,33.11,0,0,1,.76-3.27,3.31,3.31,0,0,1,0,.91c0,.58-.18,1.41-.36,2.44a32.13,32.13,0,0,1-2.58,7.74,33.46,33.46,0,0,1-4.43,6.85,24.68,24.68,0,0,1-1.65,1.84C210.73,291.72,210.49,291.94,210.47,291.91Z" style="fill:#455a64"></path><path d="M62.25,308.86a9.16,9.16,0,0,1-2.31-.81,25,25,0,0,1-5.09-3,26.92,26.92,0,0,1-4.3-4.05,7.46,7.46,0,0,1-1.38-2c.06-.05.62.69,1.66,1.77a35.33,35.33,0,0,0,4.34,3.88C58.79,307.42,62.32,308.68,62.25,308.86Z" style="fill:#455a64"></path><path d="M645.91,258.87s-.4,0-1.16.08-1.91.08-3.41.1-3.35,0-5.54-.16c-1.09-.08-2.27-.17-3.52-.37a19.54,19.54,0,0,1-3.93-.93c-10.61-4.1-26-9.93-45-17.09l-15-5.58c-5.21-1.91-10.61-4-16.27-5.85-11.35-3.75-23.61-7.35-36.7-10.41-3.26-.77-6.59-1.5-10-2.13s-6.82-1.17-10.3-1.68c-7-1-14.08-1.92-21.35-2.74-14.54-1.58-29.63-2.9-45.12-3.56-7.75-.31-15.42-.46-23-.12s-14.95,1-22.21,1.85-14.36,2-21.28,3.23-13.64,2.75-20.12,4.52a303.09,303.09,0,0,0-36.05,12.41C295,235,285,239.88,276,244.61c-18,9.51-32,18.1-41.8,23.89l-11.25,6.71L220,276.94l-1,.57s.33-.22,1-.62l2.91-1.77,11.19-6.79c9.76-5.85,23.78-14.49,41.74-24,9-4.75,19-9.67,30.07-14.24A304,304,0,0,1,342,217.56c6.49-1.77,13.23-3.3,20.16-4.54s14-2.37,21.31-3.24,14.69-1.55,22.25-1.87,15.24-.19,23,.12c15.51.66,30.61,2,45.16,3.58,7.27.81,14.4,1.71,21.36,2.75q5.24.76,10.32,1.69c3.38.64,6.71,1.37,10,2.14,13.1,3.08,25.37,6.7,36.73,10.47,5.67,1.91,11.06,4,16.27,5.88l14.94,5.62c19,7.2,34.39,13.08,45,17.24a18.85,18.85,0,0,0,3.88.94c1.24.21,2.41.31,3.5.4,2.18.16,4,.19,5.53.2s2.64,0,3.41,0S645.91,258.87,645.91,258.87Z" style="fill:#455a64"></path><path d="M428.14,199.56l-24.25.05a1.85,1.85,0,0,1-1.74-2.52L406.8,185a2.74,2.74,0,0,1,2.56-1.76h12.82a2.74,2.74,0,0,1,2.52,1.67L429.84,197A1.86,1.86,0,0,1,428.14,199.56Z" style="fill:#FF725E"></path><path d="M98.33,305.43l-33,5.13s-20.72,2.75-22.46,12.73L41.6,329.8s13.84,2.15,23.28-2.46S98.33,305.43,98.33,305.43Z" style="fill:#e0e0e0"></path><path d="M98.87,329.29a35.89,35.89,0,0,1-5.19-3.42A35.68,35.68,0,0,1,88.79,322,36.52,36.52,0,0,1,94,325.45,39.37,39.37,0,0,1,98.87,329.29Z" style="fill:#455a64"></path><path d="M215.7,344.36a2.6,2.6,0,0,1-.16-.36l-.42-1.06c-.19-.46-.38-1.05-.68-1.72s-.68-1.42-1.1-2.27-1-1.74-1.57-2.74-1.35-2-2.11-3.11a55.86,55.86,0,0,0-6.11-6.8,68.88,68.88,0,0,0-8.66-6.92,73,73,0,0,0-11.15-6.11,78.37,78.37,0,0,0-28.36-6.12,81.85,81.85,0,0,0-28.73,4.18,71.28,71.28,0,0,0-20.78,11.44A72.43,72.43,0,0,0,94.41,334c-1.18,1.49-2.08,2.66-2.64,3.49-.28.39-.51.69-.67.92a2.21,2.21,0,0,1-.24.31,49.89,49.89,0,0,1,3.39-4.85,69.94,69.94,0,0,1,11.39-11.4,70.75,70.75,0,0,1,20.85-11.61,81.64,81.64,0,0,1,28.91-4.25,78.43,78.43,0,0,1,28.53,6.2A73,73,0,0,1,195.14,319a69.28,69.28,0,0,1,8.67,7,55.92,55.92,0,0,1,6.09,6.9c.75,1.13,1.5,2.15,2.08,3.15s1.13,1.92,1.54,2.78l1.07,2.3c.28.68.46,1.28.63,1.75s.28.81.37,1.08A2.1,2.1,0,0,1,215.7,344.36Z" style="fill:#455a64"></path><path d="M526.05,389.34c0,.14-69.92.26-156.16.26s-156.17-.12-156.17-.26,69.9-.26,156.17-.26S526.05,389.19,526.05,389.34Z" style="fill:#455a64"></path><path d="M432.8,230.63l1-9.39c2.53,0,60.49,5.66,92,15.75,25,8,31.72,15.74,32,18H550l-10.57.57A10.88,10.88,0,0,0,532,259c-1.89,2.06-3.9,4.8-4.15,7.33H432.31a1.63,1.63,0,0,1-1.63-1.7Z" style="fill:#455a64"></path><polygon points="509.69 232.29 503.66 266.35 508.49 266.35 514.52 233.86 509.69 232.29" style="fill:#263238"></polygon><path d="M430.59,232s7.86.73,8.77,3.34,2.22,20.79.79,22.75a9.88,9.88,0,0,1-4.46,2.87v.66s6,1.08,6.15,4.18,0,3.1,0,3.1l-14.93.23Z" style="fill:#263238"></path><path d="M257.4,273.86l-8.75,1.72s6.84,5.76,8.75,6.36,12-.86,12-.86S262.54,273.34,257.4,273.86Z" style="fill:#263238"></path><g style="opacity:0.1"><path d="M55.56,304.36c51.52-16.28,98.56-22.89,152.55-24.89l-90.84,18.38,33.41-10.09s-22.35,1.9-34.77,4S55.56,304.36,55.56,304.36Z" style="fill:#fff"></path></g><path d="M76.28,312.6,61.47,328.68s-11.42,2.93-19.87,1.12l.78-6.62s1.33-5.44,9.09-8.67C57.4,312,76.28,312.6,76.28,312.6Z" style="fill:#fff"></path><g style="opacity:0.30000000000000004"><path d="M19.77,360.49s43.88,1.62,46.71,23.2c0,0-28.19,1.84-42.81-3.7Z"></path></g><path d="M47.13,369c-.59-.09.57,11.84.57,11.84s8.67.91,16.45,1.37C64.15,382.22,59.45,370.71,47.13,369Z" style="fill:#fff"></path><path d="M20,380s5.68,5.48,19.58,7,45.52.68,45.52.68l-20.93-10.9,2.33,6.94L23.67,380Z" style="fill:#455a64"></path><ellipse cx="152.41" cy="381.05" rx="56.49" ry="54.7" transform="translate(-230.8 527.94) rotate(-89.17)" style="fill:#263238"></ellipse><path d="M97.73,380.12c0,.05,0,.09,0,.14-.45,31.2,23.67,56.84,53.88,57.27s55.06-24.5,55.51-55.69c0,0,0-.1,0-.14Z" style="fill:#263238"></path><path d="M114,380.5c-.32,21.9,16.62,39.9,37.82,40.21s38.66-17.2,39-39.1S174.19,341.7,153,341.4,114.33,358.6,114,380.5Z" style="fill:#fafafa"></path><path d="M153,341.4c-21.21-.31-38.66,17.2-39,39.1l76.79,1.11C191.13,359.71,174.19,341.7,153,341.4Z" style="fill:#e0e0e0"></path><path d="M129,380.71c-.19,13.35,10.13,24.31,23,24.5s23.54-10.48,23.74-23.82-10.13-24.31-23.05-24.49S129.22,367.37,129,380.71Z" style="fill:#263238"></path><ellipse cx="588.02" cy="386.98" rx="56.49" ry="54.7" transform="translate(192.57 969.35) rotate(-89.17)" style="fill:#263238"></ellipse><path d="M533.34,386.05c0,.05,0,.1,0,.14-.45,31.2,23.67,56.84,53.88,57.28s55.06-24.5,55.51-55.7c0,0,0-.09,0-.14Z" style="fill:#263238"></path><path d="M549.62,386.43c-.31,21.9,16.62,39.9,37.83,40.21s38.66-17.2,39-39.1-16.62-39.9-37.83-40.21S549.94,364.53,549.62,386.43Z" style="fill:#fafafa"></path><path d="M588.59,347.33c-21.2-.31-38.65,17.2-39,39.1l76.8,1.11C626.74,365.64,609.8,347.64,588.59,347.33Z" style="fill:#e0e0e0"></path><path d="M564.63,386.65c-.19,13.34,10.13,24.3,23,24.49s23.55-10.48,23.74-23.82-10.12-24.31-23-24.49S564.82,373.31,564.63,386.65Z" style="fill:#263238"></path><polygon points="524 233.86 521.7 268.44 526.76 268.37 529.89 235.4 524 233.86" style="fill:#263238"></polygon><path d="M299.43,278.76s-3.41-12.47-4.87-13.35-5-.39-5,1.27,3.12,12.08,3.12,12.08Z" style="fill:#263238"></path><path d="M284.67,260.36s-3.7-5.63-7.55-5.33-9,3.76-12.78,7.42c-2.11,2.05-7.36,8.72-6.92,13.16s4.89,4.74,10.22,5.34,17.77-.89,20.29-2.82S290,266.58,284.67,260.36Z" style="fill:#f5f5f5"></path><path d="M284.67,260.36a14.83,14.83,0,0,1,2.15,2.94,21,21,0,0,1,2.76,9.48,11.51,11.51,0,0,1-.3,3.31,5.32,5.32,0,0,1-.72,1.67,3.46,3.46,0,0,1-1.54,1.1,33.58,33.58,0,0,1-7.68,1.79,68.17,68.17,0,0,1-8.67.68,34.3,34.3,0,0,1-4.61-.3,27.93,27.93,0,0,1-4.69-.81,7.79,7.79,0,0,1-2.23-1,4.42,4.42,0,0,1-1.56-1.89,6.88,6.88,0,0,1,0-4.67A25.13,25.13,0,0,1,261.8,265a29,29,0,0,1,5.62-5.53,28.5,28.5,0,0,1,5.86-3.58,13.29,13.29,0,0,1,2.88-.91,5.21,5.21,0,0,1,2.7.12,7.2,7.2,0,0,1,2.06,1.11,13.43,13.43,0,0,1,1.49,1.28,17.23,17.23,0,0,1,1.75,2.06c.18.25.31.44.4.58s.12.2.11.21-.06-.06-.16-.18l-.43-.55a21.57,21.57,0,0,0-1.81-2,14.16,14.16,0,0,0-1.49-1.23,7,7,0,0,0-2-1,5,5,0,0,0-2.55-.08,12.87,12.87,0,0,0-2.79.93,28.69,28.69,0,0,0-5.75,3.58,29.08,29.08,0,0,0-5.5,5.48,24.86,24.86,0,0,0-4.15,7.46,6.35,6.35,0,0,0,0,4.32,5,5,0,0,0,3.46,2.63,28.75,28.75,0,0,0,4.6.8,33.49,33.49,0,0,0,4.54.3,69.09,69.09,0,0,0,8.61-.64,33.44,33.44,0,0,0,7.58-1.72,3.06,3.06,0,0,0,1.38-.95,4.91,4.91,0,0,0,.66-1.52,11.05,11.05,0,0,0,.32-3.2,21.07,21.07,0,0,0-2.57-9.39C285.51,261.36,284.61,260.4,284.67,260.36Z" style="fill:#263238"></path><path d="M285.78,278.76c-.1,0,.26-1.5.34-3.93a22.23,22.23,0,0,0-1.72-9.22,23.89,23.89,0,0,0-2.58-4.5A22.7,22.7,0,0,0,279,258c-1.8-1.63-3.12-2.4-3.06-2.49a4.31,4.31,0,0,1,.94.5,8.83,8.83,0,0,1,1.05.69,15.85,15.85,0,0,1,1.31,1,21.24,21.24,0,0,1,3,3.14,22.7,22.7,0,0,1,2.67,4.59,21.12,21.12,0,0,1,1.61,9.44,17.35,17.35,0,0,1-.41,2.88A4,4,0,0,1,285.78,278.76Z" style="fill:#263238"></path><path d="M252.47,282.59a29.45,29.45,0,0,1,6.35-1.45,29.9,29.9,0,0,1,6.5-.52c0,.15-2.87.49-6.42,1S252.5,282.73,252.47,282.59Z" style="fill:#455a64"></path><path d="M257.9,273.86a35.36,35.36,0,0,1-5.87,1.27,35.23,35.23,0,0,1-6,.76,35.33,35.33,0,0,1,5.88-1.27A35.29,35.29,0,0,1,257.9,273.86Z" style="fill:#455a64"></path><path d="M309.2,221.93,316,226c-32.49,13.29-64.79,30.85-96.95,51.48l1.2-6.41s29.76-19.26,48.24-29.52S309.2,221.93,309.2,221.93Z" style="fill:#455a64"></path><path d="M549.71,228.05l70.14,26,12.66-.72S576.17,230.63,551,222.87Z" style="fill:#455a64"></path><path d="M661.57,284.64s37.3,26.33,60.69,30.8c0,0-1.44-20.36-5.39-25.45s-10.85-6.75-15.29-7.57S661.4,282.67,661.57,284.64Z" style="fill:#FF725E"></path><path d="M92.17,402.05a2.29,2.29,0,0,1-.62.05l-1.78,0c-1.55,0-3.79,0-6.56-.11a158.13,158.13,0,0,1-42.45-7.61c-2.63-.87-4.75-1.62-6.19-2.18l-1.65-.66a2.57,2.57,0,0,1-.57-.26,2.5,2.5,0,0,1,.6.16l1.69.57c1.46.5,3.59,1.2,6.23,2a179.8,179.8,0,0,0,21,5.11,182.74,182.74,0,0,0,21.41,2.5c2.76.15,5,.24,6.54.27l1.78.06A3,3,0,0,1,92.17,402.05Z" style="fill:#455a64"></path><path d="M74.86,378.35a2.51,2.51,0,0,1-.4-.47c-.26-.31-.6-.79-1.08-1.38a64.11,64.11,0,0,0-4.25-4.83A57.62,57.62,0,0,0,31.48,354.3a61.08,61.08,0,0,0-6.43-.1c-.76,0-1.35.07-1.75.08a2.71,2.71,0,0,1-.62,0,3.86,3.86,0,0,1,.61-.1c.4,0,1-.13,1.75-.17a51.89,51.89,0,0,1,6.46-.07,55.93,55.93,0,0,1,37.89,17.49,49.21,49.21,0,0,1,4.15,5c.46.61.78,1.11,1,1.44A2.78,2.78,0,0,1,74.86,378.35Z" style="fill:#455a64"></path><path d="M105.63,310.59a6.65,6.65,0,0,1-.66.4c-.43.25-1.08.59-1.9,1.07-1.66.94-4,2.36-6.86,4.22s-6.16,4.18-9.85,6.77-7.74,5.42-12.18,8.13A81.19,81.19,0,0,1,61,337.69a50.54,50.54,0,0,1-11.6,3,36.51,36.51,0,0,1-8.08.18c-1,0-1.68-.22-2.17-.28a5.84,5.84,0,0,1-.75-.14,3.35,3.35,0,0,1,.76,0c.5,0,1.23.16,2.18.18a40.72,40.72,0,0,0,8-.34,52.35,52.35,0,0,0,11.48-3.06,82.9,82.9,0,0,0,13-6.51c4.42-2.7,8.48-5.52,12.18-8.08s7-4.86,9.92-6.68,5.27-3.2,7-4.08c.83-.46,1.51-.77,2-1A3.61,3.61,0,0,1,105.63,310.59Z" style="fill:#455a64"></path><g style="opacity:0.30000000000000004"><path d="M711.66,290.36a25.91,25.91,0,0,0-12.4-3.34c-7.35-.12-24.93,1.67-24.93,1.67s30.55,17.81,37.33,19.83S715.37,292.08,711.66,290.36Z" style="fill:#fff"></path></g><path d="M401.1,205s2.67-4.08,9.67-5.44h13.35s7.05,1.87,10.29,6.2Z" style="fill:#263238"></path><g style="opacity:0.30000000000000004"><path d="M428.14,199.56l-24.25.05a1.85,1.85,0,0,1-1.74-2.52L406.8,185a2.74,2.74,0,0,1,2.56-1.76h12.82a2.74,2.74,0,0,1,2.52,1.67L429.84,197A1.86,1.86,0,0,1,428.14,199.56Z"></path></g><path d="M422.89,199.56l-24.24.05a1.85,1.85,0,0,1-1.74-2.52L401.55,185a2.75,2.75,0,0,1,2.57-1.76h12.81a2.75,2.75,0,0,1,2.53,1.67L424.6,197A1.87,1.87,0,0,1,422.89,199.56Z" style="fill:#FF725E"></path><path d="M424.6,197a9.76,9.76,0,0,1-.91-1.83c-.6-1.34-1.28-2.82-2-4.45a42.27,42.27,0,0,1-2.61-6.42,8.07,8.07,0,0,1,1,1.78c.56,1.12,1.31,2.68,2.1,4.42A31.29,31.29,0,0,1,424.6,197Z" style="fill:#263238"></path><path d="M397,184a21.58,21.58,0,0,1-4.1-2.39,22.19,22.19,0,0,1-3.82-2.83,21.93,21.93,0,0,1,4.1,2.39A22.19,22.19,0,0,1,397,184Z" style="fill:#263238"></path><path d="M402.64,179.64a38.58,38.58,0,0,1-3-5.52,38.26,38.26,0,0,1-2.55-5.75,37.25,37.25,0,0,1,3,5.52A37.29,37.29,0,0,1,402.64,179.64Z" style="fill:#263238"></path><path d="M271.7,305.68h16.71q8.46,0,12.69,3.79t4.23,11.12v5.94q0,7.34-4.23,11.12t-12.69,3.79h-5.36V366H271.7Zm16.71,27.14a6,6,0,0,0,4.18-1.29c.93-.86,1.39-2.33,1.39-4.39V320c0-2.06-.46-3.53-1.39-4.39a6,6,0,0,0-4.18-1.29h-5.36v18.52Z" style="fill:#263238"></path><path d="M316.16,362.89q-4.44-4-4.44-11.2V320q0-7.23,4.44-11.2t12.79-4q8.35,0,12.79,4t4.44,11.2v31.71q0,7.24-4.44,11.2t-12.79,4Q320.6,366.86,316.16,362.89Zm18.67-10.6V319.38q0-5.94-5.88-5.94t-5.88,5.94v32.91q0,6,5.88,5.95T334.83,352.29Z" style="fill:#263238"></path><path d="M354.84,305.68h11.35v51.7h18.67V366h-30Z" style="fill:#263238"></path><path d="M391.36,305.68H402.7V366H391.36Z" style="fill:#263238"></path><path d="M415.75,363q-4.28-3.89-4.28-10.94v-32.4q0-7.06,4.28-10.94t12.43-3.88q8.15,0,12.43,3.88t4.28,10.94V326H434.16v-7c0-3.74-1.89-5.6-5.67-5.6s-5.67,1.86-5.67,5.6v33.69q0,5.5,5.67,5.51t5.67-5.51v-9.22h10.73V352q0,7.06-4.28,10.94t-12.43,3.88Q420,366.86,415.75,363Z" style="fill:#263238"></path><path d="M452.73,305.68h30.95v8.62h-19.6v15.94h15.57v8.61H464.08v18.53h19.6V366H452.73Z" style="fill:#263238"></path><path d="M405.66,389.5s0-.15-.09-.45l-.21-1.35c-.17-1.22-.42-3-.73-5.2-.6-4.52-1.43-11.06-2.27-19.17-.41-4.05-.85-8.5-1.1-13.29s-.38-9.91-.4-15.3.06-11,.28-16.9a146.16,146.16,0,0,1,1.52-18.1c1-6.16,2.17-12.11,3.4-17.85.6-2.87,1.3-5.67,1.84-8.43s1.1-5.47,1.62-8.11c2.12-10.56,4-20.07,5.62-28.07s2.92-14.42,3.83-18.91l1.07-5.13c.13-.57.22-1,.29-1.34s.12-.45.12-.45a3.86,3.86,0,0,1-.07.46c-.05.33-.13.77-.24,1.35-.22,1.2-.55,2.93-1,5.15-.87,4.5-2.12,11-3.67,19s-3.44,17.52-5.51,28.09q-.78,4-1.6,8.12c-.55,2.77-1.24,5.56-1.83,8.43-1.22,5.73-2.42,11.68-3.39,17.82a148.66,148.66,0,0,0-1.52,18c-.23,5.86-.31,11.51-.31,16.89s.11,10.5.35,15.28.65,9.22,1,13.28c.79,8.1,1.58,14.65,2.11,19.17.27,2.25.49,4,.63,5.21.07.58.12,1,.16,1.36S405.66,389.5,405.66,389.5Z" style="fill:#455a64"></path><g style="opacity:0.1"><path d="M145.41,310.52a7.32,7.32,0,0,0-3.09,0,82.68,82.68,0,0,0-43.95,21.54A14.53,14.53,0,0,0,96,335a11,11,0,0,0-1.73,4.95,2.45,2.45,0,0,0,4,2.06,31.15,31.15,0,0,0,3.52-3.65A68.54,68.54,0,0,1,143,315.82a8.64,8.64,0,0,0,2.89-.76,2.69,2.69,0,0,0,1.52-2.4A2.65,2.65,0,0,0,145.41,310.52Z" style="fill:#fff"></path></g><g style="opacity:0.1"><path d="M155.89,312a2.61,2.61,0,1,1-2.61-2.61A2.61,2.61,0,0,1,155.89,312Z" style="fill:#fff"></path></g></g></svg>
