<svg width="26" height="22" viewBox="0 0 26 22" fill="none" xmlns="http://www.w3.org/2000/svg">
<path d="M8.1769 21.5651C17.9889 21.5651 23.3542 13.4367 23.3542 6.38789C23.3542 6.15662 23.349 5.9267 23.3388 5.69812C24.3829 4.94278 25.2841 4.00739 26 2.93583C25.0266 3.36698 23.9941 3.6499 22.9369 3.77519C24.0501 3.10809 24.8834 2.0596 25.2819 0.824486C24.2346 1.44516 23.089 1.8827 21.8946 2.1183C21.3955 1.5858 20.7924 1.16146 20.1227 0.871583C19.4529 0.581704 18.7308 0.432464 18.001 0.433108C16.5855 0.433108 15.2281 0.995394 14.2272 1.99627C13.2263 2.99715 12.664 4.35463 12.664 5.77009C12.6635 6.17837 12.7099 6.58535 12.8023 6.98304C10.6809 6.87727 8.60543 6.32642 6.71077 5.36627C4.81612 4.40613 3.14463 3.05817 1.80487 1.40994C1.33084 2.22398 1.08163 3.14936 1.08276 4.09137C1.08191 4.96973 1.29812 5.83468 1.71218 6.60933C2.12623 7.38397 2.7253 8.04429 3.4561 8.53157C2.60887 8.50538 1.78029 8.27633 1.0399 7.86364C1.0399 7.88628 1.0399 7.90812 1.0399 7.93157C1.03992 9.16411 1.46655 10.3587 2.24734 11.3124C3.02813 12.266 4.11495 12.9201 5.32324 13.1634C4.86485 13.2878 4.39199 13.3509 3.91702 13.351C3.58049 13.3508 3.24475 13.3185 2.91432 13.2548C3.25531 14.3144 3.91906 15.2408 4.81267 15.9045C5.70628 16.5681 6.78502 16.9357 7.89793 16.9559C6.00867 18.4399 3.67519 19.2454 1.27279 19.2427C0.84745 19.2432 0.422451 19.2186 0 19.1692C2.43916 20.7361 5.27779 21.5679 8.1769 21.5651Z" fill="white"/>
</svg>
