<svg xmlns="http://www.w3.org/2000/svg" viewBox="0 0 750 500"><g id="freepik--background-complete--inject-6"><path d="M633.24,92c.75-5.44-6.93-9.92-12.7-10.38-2.75-.23-5.61.19-8.22-.71-5.65-2-7.9-9.27-13.41-11.6-4.12-1.73-8.87-.19-12.86,1.82s-7.95,4.55-12.41,4.83c-3.88.25-8.1-1.19-11.49.71C559.62,78,558.29,81,556,82.68s-5.26,2-8.09,2.19-5.76.18-8.34,1.36-4.71,3.91-4.18,6.69Z" style="fill:#f5f5f5"></path><path d="M186.39,106c.75-5.44-6.93-9.92-12.7-10.38-2.75-.22-5.61.2-8.22-.71-5.65-2-7.9-9.27-13.42-11.59-4.12-1.74-8.86-.19-12.86,1.82s-7.94,4.54-12.4,4.82c-3.88.25-8.1-1.19-11.49.71-2.54,1.41-3.86,4.33-6.19,6s-5.26,2-8.09,2.19-5.77.18-8.35,1.36S88,104.18,88.5,107Z" style="fill:#f5f5f5"></path><path d="M104.33,184.3c.49-3.52-4.48-6.42-8.21-6.72-1.78-.14-3.63.13-5.31-.46-3.65-1.27-5.11-6-8.68-7.49-2.66-1.12-5.73-.12-8.31,1.18s-5.13,2.93-8,3.12c-2.51.16-5.24-.77-7.43.45-1.64.92-2.49,2.8-4,3.91a9.54,9.54,0,0,1-5.23,1.42,14.83,14.83,0,0,0-5.4.88c-1.66.77-3,2.53-2.7,4.33Z" style="fill:#f5f5f5"></path><path d="M344.4,46.81c.48-3.52-4.49-6.42-8.22-6.72-1.78-.14-3.62.13-5.31-.46-3.65-1.27-5.11-6-8.67-7.49-2.67-1.12-5.73-.12-8.32,1.18s-5.13,2.93-8,3.12c-2.51.16-5.23-.77-7.43.45-1.64.92-2.49,2.8-4,3.91a9.54,9.54,0,0,1-5.23,1.42,14.86,14.86,0,0,0-5.4.88c-1.66.77-3,2.53-2.7,4.33Z" style="fill:#f5f5f5"></path><path d="M708.28,192.19c.48-3.52-4.48-6.42-8.21-6.72-1.78-.14-3.63.13-5.32-.46-3.65-1.27-5.11-6-8.67-7.49-2.66-1.12-5.73-.12-8.31,1.18s-5.14,2.93-8,3.12c-2.51.16-5.23-.77-7.43.45-1.63.92-2.49,2.8-4,3.91a9.52,9.52,0,0,1-5.23,1.42,14.77,14.77,0,0,0-5.39.88c-1.67.77-3.05,2.53-2.7,4.33Z" style="fill:#f5f5f5"></path><path d="M375,61.57c-150.43,0-272.37,121.94-272.37,272.37a271.13,271.13,0,0,0,36.14,135.67l471.54,1.58c25.22-41.29,37.06-85.32,37.06-137.25C647.37,183.51,525.43,61.57,375,61.57Z" style="fill:#f5f5f5"></path><path d="M260.81,445.8l-3.72-137.44,19.36-14.51L274.92,291l-18.08,11.57-8.92-100.38h-4.45S240.29,426.33,235,434s-15.22,11.78-15.22,11.78Z" style="fill:#ebebeb"></path><path d="M255.31,438.71a1.34,1.34,0,0,1,0-.44c0-.33.07-.76.13-1.3.14-1.18.34-2.86.59-5,.51-4.34,1.29-10.62,2-18.39a199.7,199.7,0,0,0,.7-27.34,126.09,126.09,0,0,0-1.83-16.06c-1-5.54-2.49-11.21-3.92-17A132,132,0,0,1,249.67,336a68.44,68.44,0,0,1-.37-8.29,65.63,65.63,0,0,1,.73-7.92c.77-5.13,1.94-9.94,3-14.44s2-8.7,2.59-12.56a52.11,52.11,0,0,0,0-18.35,36.6,36.6,0,0,0-1.33-4.88c-.19-.52-.34-.94-.46-1.25a3.46,3.46,0,0,1-.13-.43,2.07,2.07,0,0,1,.21.41l.53,1.23a33.24,33.24,0,0,1,1.47,4.88,50.71,50.71,0,0,1,.23,18.45c-.55,3.88-1.47,8.09-2.5,12.6s-2.16,9.31-2.91,14.41a64.86,64.86,0,0,0-.69,7.87,67.27,67.27,0,0,0,.38,8.21A133.73,133.73,0,0,0,253.72,353c1.43,5.83,2.9,11.51,3.92,17.07a125.4,125.4,0,0,1,1.79,16.14,193.46,193.46,0,0,1-.86,27.39c-.76,7.78-1.62,14.05-2.23,18.38-.31,2.14-.55,3.81-.73,5-.08.54-.15,1-.21,1.3A2.13,2.13,0,0,1,255.31,438.71Z" style="fill:#e0e0e0"></path><path d="M226,445.7a25.67,25.67,0,0,0,21.64-10.2,33.28,33.28,0,0,0,5.09-10.06A76.38,76.38,0,0,0,255.43,413a109,109,0,0,0,.62-28.87,11.26,11.26,0,0,0-1.36-4.71,4.81,4.81,0,0,0-1.75-1.75,4.24,4.24,0,0,0-2.54-.44,6.52,6.52,0,0,0-4.07,2.83,23.6,23.6,0,0,0-2.27,4.22,28.59,28.59,0,0,0-1.76,17.07,9,9,0,0,0,1.33,3.68,2.07,2.07,0,0,0,1.66.81A2.5,2.5,0,0,0,247,405a6.19,6.19,0,0,0,1.08-1.52,16.35,16.35,0,0,0,.8-1.63,16,16,0,0,0-1-14.43l.34,0a12.44,12.44,0,0,0-2.85,7.77,13.1,13.1,0,0,0,.17,2.16,4.66,4.66,0,0,1,.12.74,8.55,8.55,0,0,1-.5-2.89,12.3,12.3,0,0,1,2.73-8l.18-.24.16.25a16.21,16.21,0,0,1,2.21,11.36,14.5,14.5,0,0,1-2.93,6.7,3.23,3.23,0,0,1-2.13,1,2.74,2.74,0,0,1-2.2-1,9.08,9.08,0,0,1-1.46-3.88,28.91,28.91,0,0,1,1.72-17.37,24,24,0,0,1,2.32-4.34,9.67,9.67,0,0,1,1.86-1.93,5.93,5.93,0,0,1,2.72-1.2,5.16,5.16,0,0,1,3.08.53,5.33,5.33,0,0,1,2,2,11.66,11.66,0,0,1,1.44,4.94,107.31,107.31,0,0,1-.68,29,75.41,75.41,0,0,1-2.75,12.48,33.4,33.4,0,0,1-5.25,10.17,26.8,26.8,0,0,1-15.07,9.56,23.31,23.31,0,0,1-5.2.54c-.6,0-1.06-.07-1.36-.08A2.66,2.66,0,0,1,226,445.7Z" style="fill:#e0e0e0"></path><path d="M250.24,289.87a4.79,4.79,0,0,1-.63-.43l-1.9-1.38.16,0a10.89,10.89,0,0,0-.9,3.74,10.68,10.68,0,0,0,1.1,5.36,5.23,5.23,0,0,0,.9,1.37,1.82,1.82,0,0,0,1.59.56,2.17,2.17,0,0,0,1.38-1.09,4.52,4.52,0,0,0,.61-1.74,26.06,26.06,0,0,0,.07-8.29,25.52,25.52,0,0,0-1.1-4.51,9.48,9.48,0,0,0-1-2.21,4.6,4.6,0,0,0-1.81-1.74,3,3,0,0,0-2.59,0,4.45,4.45,0,0,0-1.81,1.86,11.28,11.28,0,0,0-1,2.48c-.28.86-.46,1.75-.68,2.64-1.54,7.19-.66,15.1.36,23.22a197.42,197.42,0,0,1,1.57,27.66A194.87,194.87,0,0,1,243,359.93c-.87,6.4-1.85,11.55-2.65,15.08-.37,1.78-.74,3.14-1,4.07-.11.44-.2.78-.27,1.05a1.93,1.93,0,0,1-.12.36s0-.13,0-.37.12-.62.2-1.06c.18-.94.5-2.31.82-4.09.71-3.54,1.61-8.69,2.4-15.08a204.85,204.85,0,0,0,1.49-22.53,203,203,0,0,0-1.63-27.59c-1-8.13-1.9-16.1-.31-23.39.23-.9.41-1.81.71-2.68a11.05,11.05,0,0,1,1-2.58,5,5,0,0,1,2.1-2.11,3.8,3.8,0,0,1,3.26,0,5.17,5.17,0,0,1,2.06,2,10.3,10.3,0,0,1,1,2.32,27.41,27.41,0,0,1,1.08,4.59,26.1,26.1,0,0,1-.16,8.41,4.91,4.91,0,0,1-.68,1.87,2.62,2.62,0,0,1-1.72,1.28,2.3,2.3,0,0,1-2-.7,5.29,5.29,0,0,1-.95-1.48,10.67,10.67,0,0,1,0-9.29l.06-.12.1.09,1.84,1.44A3.68,3.68,0,0,1,250.24,289.87Z" style="fill:#e0e0e0"></path><path d="M248.41,107c.34,2.39-34.65,86-34.65,86l17.5-13.49L206.05,238l16.61-17.54-26.54,74,16.45-8.32L196,337.76l14.24-13.49L196,362.94l112.7-6.3L282,283.81l16.12,13.49-20.87-53.06,10.68,4.5L263.58,180.4l10.92,4.8Z" style="fill:#ebebeb"></path><path d="M599.28,472.08l-2.93-108.23,15.25-11.43-1.21-2.25-14.23,9.11-7-79h-3.51S583.13,456.75,579,462.81s-12,9.27-12,9.27Z" style="fill:#ebebeb"></path><path d="M595,466.5a1.33,1.33,0,0,1,0-.35c0-.25.07-.59.11-1,.11-.93.27-2.25.46-3.94.41-3.42,1-8.36,1.56-14.48a157.18,157.18,0,0,0,.55-21.53,98,98,0,0,0-1.43-12.65c-.81-4.36-2-8.83-3.1-13.42a104.46,104.46,0,0,1-2.6-13.53,53.38,53.38,0,0,1-.29-6.52,50.4,50.4,0,0,1,.57-6.24c.61-4,1.53-7.83,2.35-11.38s1.58-6.84,2-9.88a41,41,0,0,0,0-14.45,28.87,28.87,0,0,0-1.05-3.85l-.36-1a1.3,1.3,0,0,1-.1-.34,1.41,1.41,0,0,1,.16.32l.42,1a26.24,26.24,0,0,1,1.15,3.84,39.88,39.88,0,0,1,.19,14.53c-.43,3.06-1.16,6.37-2,9.92s-1.7,7.34-2.29,11.36a51.6,51.6,0,0,0-.55,6.19,54.66,54.66,0,0,0,.3,6.47A106.39,106.39,0,0,0,593.7,399c1.13,4.59,2.28,9.07,3.08,13.45a95.38,95.38,0,0,1,1.41,12.7,151.58,151.58,0,0,1-.67,21.58c-.6,6.12-1.28,11.06-1.75,14.47-.25,1.68-.44,3-.58,3.93-.07.43-.12.76-.17,1A1.78,1.78,0,0,1,595,466.5Z" style="fill:#e0e0e0"></path><path d="M571.89,472a21.3,21.3,0,0,0,5.47-.51A20.91,20.91,0,0,0,588.93,464a26.13,26.13,0,0,0,4-7.92,60.65,60.65,0,0,0,2.09-9.78,85.09,85.09,0,0,0,.49-22.74,8.89,8.89,0,0,0-1.07-3.71,3.63,3.63,0,0,0-1.38-1.37,3.26,3.26,0,0,0-2-.35,5.09,5.09,0,0,0-3.2,2.23,19.07,19.07,0,0,0-1.79,3.32,22.52,22.52,0,0,0-1.38,13.45,6.82,6.82,0,0,0,1,2.89,1.61,1.61,0,0,0,1.31.64,2,2,0,0,0,1.32-.64,5,5,0,0,0,.85-1.2,11.79,11.79,0,0,0,.63-1.29,12.87,12.87,0,0,0,.78-2.58,12.58,12.58,0,0,0-1.6-8.78l.27,0a9.81,9.81,0,0,0-2.24,6.12,10.74,10.74,0,0,0,.13,1.7,2.83,2.83,0,0,1,.09.58,6.94,6.94,0,0,1-.39-2.28,9.72,9.72,0,0,1,2.15-6.27l.15-.19.12.21a12.75,12.75,0,0,1,1.74,8.94,11.4,11.4,0,0,1-2.31,5.27,2.49,2.49,0,0,1-1.68.8,2.19,2.19,0,0,1-1.73-.81,7.24,7.24,0,0,1-1.14-3.06,22.72,22.72,0,0,1,1.35-13.68,18.91,18.91,0,0,1,1.83-3.42,7.46,7.46,0,0,1,1.46-1.52,4.7,4.7,0,0,1,2.14-.94,4,4,0,0,1,2.43.42A4.32,4.32,0,0,1,595,419.6a9.28,9.28,0,0,1,1.14,3.88,84.56,84.56,0,0,1-.54,22.85,60.83,60.83,0,0,1-2.16,9.83,26.69,26.69,0,0,1-4.14,8,21.1,21.1,0,0,1-11.87,7.53,18.06,18.06,0,0,1-4.1.42c-.47,0-.83-.05-1.07-.06Z" style="fill:#e0e0e0"></path><path d="M591,349.28a2.76,2.76,0,0,1-.5-.33L589,347.86l.12,0a8.61,8.61,0,0,0-.71,3,8.39,8.39,0,0,0,.87,4.21,3.81,3.81,0,0,0,.71,1.08,1.37,1.37,0,0,0,1.25.44,1.68,1.68,0,0,0,1.09-.85,3.68,3.68,0,0,0,.48-1.37,20.62,20.62,0,0,0,.06-6.53,21.59,21.59,0,0,0-.87-3.55,7.73,7.73,0,0,0-.78-1.74,3.56,3.56,0,0,0-1.43-1.37,2.39,2.39,0,0,0-2,0,3.5,3.5,0,0,0-1.43,1.47,9.16,9.16,0,0,0-.75,2c-.22.68-.36,1.38-.54,2.08-1.21,5.66-.51,11.89.28,18.29a155.21,155.21,0,0,1,1.24,21.78,150.7,150.7,0,0,1-1.3,17.77c-.68,5-1.45,9.09-2.08,11.88-.29,1.4-.58,2.47-.76,3.2-.09.34-.16.62-.21.83a1.33,1.33,0,0,1-.1.28.92.92,0,0,1,0-.29q.06-.32.15-.84c.14-.73.4-1.81.65-3.21.56-2.8,1.27-6.85,1.89-11.88a158.69,158.69,0,0,0-.11-39.47c-.8-6.4-1.5-12.68-.24-18.42.18-.71.32-1.42.55-2.11a9,9,0,0,1,.8-2,4,4,0,0,1,1.65-1.67,3,3,0,0,1,2.57,0,4,4,0,0,1,1.62,1.55,7.76,7.76,0,0,1,.81,1.83,22.45,22.45,0,0,1,.86,3.61,20.57,20.57,0,0,1-.13,6.63,3.79,3.79,0,0,1-.54,1.47,2,2,0,0,1-1.35,1,1.78,1.78,0,0,1-1.6-.55,4.21,4.21,0,0,1-.75-1.17,8.53,8.53,0,0,1-.81-4.33,8.18,8.18,0,0,1,.82-3l0-.09.08.06,1.44,1.14A5.49,5.49,0,0,1,591,349.28Z" style="fill:#e0e0e0"></path><path d="M589.79,206.07c0,1.07-27.56,66.92-27.56,66.92L576,262.37l-19.85,46,13.08-13.81-20.9,58.25,12.95-6.56L548.22,387l11.21-10.62-11.21,30.45,88.74-5-21-57.36,12.7,10.63-16.43-41.78,8.41,3.54-19.16-53.82,8.88,4.6Z" style="fill:#e0e0e0"></path><path d="M165.75,470l-3-111.89,15.76-11.82L177.23,344l-14.72,9.42-7.26-81.72h-3.62s-2.59,182.48-6.9,188.75S132.34,470,132.34,470Z" style="fill:#ebebeb"></path><path d="M161.26,464.24a1.94,1.94,0,0,1,0-.36c0-.27.06-.62.11-1.06.11-1,.27-2.33.48-4.07.42-3.54,1-8.65,1.61-15a162.77,162.77,0,0,0,.57-22.26,99.7,99.7,0,0,0-1.49-13.08c-.83-4.5-2-9.12-3.19-13.87a106.84,106.84,0,0,1-2.69-14,54.93,54.93,0,0,1-.31-6.74,53.83,53.83,0,0,1,.6-6.45c.62-4.18,1.57-8.1,2.43-11.76s1.63-7.08,2.1-10.22a42.3,42.3,0,0,0,0-14.94,30.14,30.14,0,0,0-1.08-4c-.16-.42-.28-.76-.37-1a2,2,0,0,1-.11-.35,1.37,1.37,0,0,1,.17.33l.43,1a26.85,26.85,0,0,1,1.2,4,41.18,41.18,0,0,1,.18,15c-.44,3.16-1.19,6.59-2,10.26s-1.76,7.58-2.37,11.74a53.06,53.06,0,0,0-.56,6.4,54.22,54.22,0,0,0,.31,6.69A109,109,0,0,0,160,394.47c1.17,4.74,2.37,9.37,3.19,13.9a100.22,100.22,0,0,1,1.46,13.13,158.32,158.32,0,0,1-.7,22.3c-.62,6.34-1.32,11.44-1.81,15-.26,1.74-.46,3.1-.6,4.06-.07.44-.12.79-.17,1.05A1.52,1.52,0,0,1,161.26,464.24Z" style="fill:#e0e0e0"></path><path d="M137.43,469.93A21,21,0,0,0,155,461.62a27,27,0,0,0,4.16-8.19,62.14,62.14,0,0,0,2.16-10.11,88.24,88.24,0,0,0,.51-23.5,9.27,9.27,0,0,0-1.11-3.84,3.87,3.87,0,0,0-1.42-1.42,3.43,3.43,0,0,0-2.07-.36,5.29,5.29,0,0,0-3.31,2.3,19.75,19.75,0,0,0-1.85,3.44,23.23,23.23,0,0,0-1.43,13.9,7.11,7.11,0,0,0,1.08,3,1.65,1.65,0,0,0,1.35.66,2,2,0,0,0,1.37-.66,5,5,0,0,0,.87-1.24,13.68,13.68,0,0,0,.66-1.33,13.18,13.18,0,0,0,.8-2.68,13,13,0,0,0-1.65-9.07l.28,0a10,10,0,0,0-2.18,8.08,3,3,0,0,1,.09.61,7,7,0,0,1-.41-2.36,10.09,10.09,0,0,1,2.23-6.48l.15-.19.13.2a13.26,13.26,0,0,1,1.8,9.25,11.86,11.86,0,0,1-2.39,5.45,2.59,2.59,0,0,1-1.74.82,2.21,2.21,0,0,1-1.79-.83,7.48,7.48,0,0,1-1.18-3.17,23.42,23.42,0,0,1,1.4-14.13,19.26,19.26,0,0,1,1.89-3.54,7.7,7.7,0,0,1,1.51-1.57,4.74,4.74,0,0,1,2.22-1,4.13,4.13,0,0,1,2.5.43,4.4,4.4,0,0,1,1.64,1.62,9.45,9.45,0,0,1,1.17,4,87.32,87.32,0,0,1-.55,23.61,62.08,62.08,0,0,1-2.24,10.16,27.09,27.09,0,0,1-4.28,8.27,21.76,21.76,0,0,1-12.26,7.79,19.06,19.06,0,0,1-4.24.44c-.49,0-.86-.05-1.11-.07Z" style="fill:#e0e0e0"></path><path d="M157.14,343.06a3.38,3.38,0,0,1-.52-.34l-1.54-1.13.13,0a9,9,0,0,0-.74,3.05,8.76,8.76,0,0,0,.9,4.36,4.27,4.27,0,0,0,.74,1.12,1.45,1.45,0,0,0,1.29.45,1.76,1.76,0,0,0,1.12-.88,3.71,3.71,0,0,0,.5-1.42,21.18,21.18,0,0,0-.84-10.42,7.8,7.8,0,0,0-.8-1.8,3.66,3.66,0,0,0-1.48-1.41,2.38,2.38,0,0,0-2.1,0,3.56,3.56,0,0,0-1.48,1.52,8.64,8.64,0,0,0-.78,2c-.23.69-.37,1.42-.56,2.14-1.25,5.86-.53,12.29.29,18.91a158.45,158.45,0,0,1,1.28,22.52,157.88,157.88,0,0,1-1.34,18.37c-.7,5.21-1.51,9.4-2.16,12.28-.29,1.44-.59,2.55-.78,3.31-.09.35-.16.64-.22.86a1,1,0,0,1-.1.29.94.94,0,0,1,0-.3l.16-.87c.14-.76.41-1.88.67-3.32.57-2.89,1.31-7.08,2-12.29a164.68,164.68,0,0,0,1.2-18.34,164.16,164.16,0,0,0-1.32-22.46c-.83-6.61-1.55-13.1-.25-19,.19-.74.33-1.47.57-2.18a9.83,9.83,0,0,1,.82-2.1,4.1,4.1,0,0,1,1.71-1.72,3.06,3.06,0,0,1,2.66,0,4.13,4.13,0,0,1,1.68,1.6,7.83,7.83,0,0,1,.83,1.89,21.9,21.9,0,0,1,.89,3.73,21.35,21.35,0,0,1-.13,6.85,4,4,0,0,1-.56,1.52,2.1,2.1,0,0,1-1.4,1,1.88,1.88,0,0,1-1.66-.57,4.58,4.58,0,0,1-.77-1.2,8.73,8.73,0,0,1,0-7.57l0-.09.09.07,1.49,1.17A3.3,3.3,0,0,1,157.14,343.06Z" style="fill:#e0e0e0"></path><path d="M155.93,195c0,1.1-28.49,69.18-28.49,69.18l14.24-11-20.52,47.58,13.52-14.27-21.6,60.21L126.47,340,113,382.05l11.59-11L113,402.55l91.75-5.13L183,338.13l13.12,11-17-43.19,8.69,3.66L168,253.94l9.18,4.76Z" style="fill:#e0e0e0"></path><path d="M356.21,470,352,314.87l21.85-16.38-1.73-3.24-20.41,13.06L341.65,195h-5s-3.58,253-9.56,261.69S309.89,470,309.89,470Z" style="fill:#ebebeb"></path><path d="M350,462a2.45,2.45,0,0,1,0-.51c0-.36.09-.85.16-1.47.15-1.33.38-3.22.66-5.64.58-4.9,1.46-12,2.24-20.75a227.36,227.36,0,0,0,.79-30.86,139.57,139.57,0,0,0-2.07-18.13c-1.15-6.25-2.81-12.66-4.43-19.24A150.19,150.19,0,0,1,343.63,346a77.9,77.9,0,0,1-.42-9.35,74,74,0,0,1,.82-8.94c.87-5.79,2.19-11.23,3.37-16.3s2.27-9.82,2.92-14.18a58.67,58.67,0,0,0,0-20.71,41.33,41.33,0,0,0-1.49-5.51l-.52-1.41a2.8,2.8,0,0,1-.15-.49,2.9,2.9,0,0,1,.23.47c.15.34.35.8.6,1.39a36,36,0,0,1,1.66,5.5c1.13,4.85,1.58,12.07.26,20.83-.62,4.38-1.66,9.13-2.82,14.22s-2.44,10.51-3.28,16.27a73.08,73.08,0,0,0-.79,8.88,76.75,76.75,0,0,0,.44,9.27,151.76,151.76,0,0,0,3.73,19.31c1.62,6.58,3.28,13,4.42,19.27a139.31,139.31,0,0,1,2,18.21,219.15,219.15,0,0,1-1,30.92c-.85,8.78-1.83,15.86-2.51,20.75-.35,2.41-.63,4.3-.82,5.63l-.24,1.46A2.11,2.11,0,0,1,350,462Z" style="fill:#e0e0e0"></path><path d="M316.94,469.88a29.5,29.5,0,0,0,7.84-.72,29.94,29.94,0,0,0,16.59-10.8A37.41,37.41,0,0,0,347.12,447a86.93,86.93,0,0,0,3-14,122.83,122.83,0,0,0,.7-32.59,12.74,12.74,0,0,0-1.54-5.32,5.32,5.32,0,0,0-2-2,4.71,4.71,0,0,0-2.87-.5,7.34,7.34,0,0,0-4.59,3.19,26.82,26.82,0,0,0-2.56,4.77,32.27,32.27,0,0,0-2,19.27c.36,1.48.57,3,1.5,4.15a2.33,2.33,0,0,0,1.87.91,2.82,2.82,0,0,0,1.9-.92,7.08,7.08,0,0,0,1.22-1.72c.35-.6.63-1.23.91-1.84a17.75,17.75,0,0,0,1.1-3.71,18.05,18.05,0,0,0-2.28-12.57l.38,0a14,14,0,0,0-3.21,8.77,15,15,0,0,0,.19,2.44,5.1,5.1,0,0,1,.13.83,9.75,9.75,0,0,1-.56-3.27,13.87,13.87,0,0,1,3.08-9l.21-.27.18.29a18.29,18.29,0,0,1,2.49,12.82,16.31,16.31,0,0,1-3.31,7.56,3.62,3.62,0,0,1-2.4,1.14,3.14,3.14,0,0,1-2.49-1.16c-1.08-1.34-1.26-2.9-1.64-4.39a32.62,32.62,0,0,1,1.94-19.6,27.71,27.71,0,0,1,2.62-4.9,10.73,10.73,0,0,1,2.09-2.18,6.76,6.76,0,0,1,3.08-1.35,5.77,5.77,0,0,1,3.48.6,6.2,6.2,0,0,1,2.27,2.25,13.23,13.23,0,0,1,1.62,5.57,121.3,121.3,0,0,1-.77,32.74,85.15,85.15,0,0,1-3.1,14.09,37.85,37.85,0,0,1-5.93,11.47,30.25,30.25,0,0,1-17,10.79A26.57,26.57,0,0,1,319,470c-.68,0-1.19-.07-1.54-.09A2,2,0,0,1,316.94,469.88Z" style="fill:#e0e0e0"></path><path d="M344.27,294a4.74,4.74,0,0,1-.71-.47l-2.14-1.57.18,0a12.3,12.3,0,0,0-1,4.23,12.08,12.08,0,0,0,1.24,6,5.78,5.78,0,0,0,1,1.55,2,2,0,0,0,1.79.63,2.44,2.44,0,0,0,1.56-1.22,5.21,5.21,0,0,0,.69-2,29.51,29.51,0,0,0-1.16-14.44,10.36,10.36,0,0,0-1.12-2.5,5.1,5.1,0,0,0-2.05-2,3.34,3.34,0,0,0-2.91,0,5,5,0,0,0-2.05,2.11,12.13,12.13,0,0,0-1.08,2.8c-.32,1-.52,2-.77,3-1.74,8.12-.74,17,.4,26.22a222.15,222.15,0,0,1,1.77,31.22,216.17,216.17,0,0,1-1.86,25.47c-1,7.22-2.08,13-3,17-.41,2-.83,3.54-1.08,4.59l-.31,1.19a2,2,0,0,1-.13.4,1.21,1.21,0,0,1,0-.42c.05-.31.13-.7.22-1.2.2-1.06.56-2.6.93-4.61.79-4,1.81-9.82,2.71-17a228.19,228.19,0,0,0-.16-56.57c-1.14-9.17-2.15-18.17-.35-26.4.26-1,.47-2,.8-3a12.45,12.45,0,0,1,1.14-2.92,5.6,5.6,0,0,1,2.37-2.38,4.31,4.31,0,0,1,3.68,0,5.89,5.89,0,0,1,2.33,2.22,11.31,11.31,0,0,1,1.15,2.62,30.8,30.8,0,0,1,1.23,5.18,29.68,29.68,0,0,1-.18,9.5,5.66,5.66,0,0,1-.77,2.11,2.93,2.93,0,0,1-1.95,1.44,2.6,2.6,0,0,1-2.29-.79,6.19,6.19,0,0,1-1.07-1.67,12,12,0,0,1,0-10.49l.06-.13.12.1,2.07,1.63A6.23,6.23,0,0,1,344.27,294Z" style="fill:#e0e0e0"></path><path d="M342.59,88.72c0,1.52-39.5,95.92-39.5,95.92l19.75-15.23-28.45,66,18.75-19.79-29.95,83.49,18.57-9.4L283,348.05l16.07-15.23L283,376.46l127.2-7.1-30.12-82.21,18.19,15.22-23.55-59.88,12,5.07-27.45-77.13L372.05,177Z" style="fill:#e0e0e0"></path><path d="M459.73,471.19l-5.06-187.06L481,264.38l-2.09-3.9-24.6,15.75L442.18,139.6h-6.06s-4.31,305.09-11.52,315.56-20.72,16-20.72,16Z" style="fill:#ebebeb"></path><path d="M452.24,461.55a2.35,2.35,0,0,1,0-.61q.06-.66.18-1.77c.19-1.61.46-3.89.8-6.8.7-5.91,1.76-14.45,2.7-25a272.85,272.85,0,0,0,.95-37.21,169.47,169.47,0,0,0-2.49-21.87C453,360.73,451,353,449.07,345.07a179.93,179.93,0,0,1-4.5-23.38,93.76,93.76,0,0,1-.51-11.28,91.64,91.64,0,0,1,1-10.78c1.05-7,2.64-13.54,4.07-19.66s2.73-11.83,3.51-17.09c1.68-10.51,1.25-19.15,0-25a50.77,50.77,0,0,0-1.8-6.64c-.27-.72-.47-1.28-.63-1.7A4.19,4.19,0,0,1,450,229a2.8,2.8,0,0,1,.28.56l.72,1.68a42.36,42.36,0,0,1,2,6.64c1.37,5.84,1.91,14.54.32,25.11-.75,5.28-2,11-3.4,17.14s-2.95,12.68-4,19.63a90.53,90.53,0,0,0-.95,10.7,92.19,92.19,0,0,0,.53,11.18,181.33,181.33,0,0,0,4.5,23.29c1.95,7.93,3.95,15.67,5.33,23.24a168.94,168.94,0,0,1,2.44,21.95,263,263,0,0,1-1.17,37.29c-1,10.59-2.21,19.13-3,25-.43,2.91-.76,5.19-1,6.79-.12.74-.22,1.32-.29,1.76A2.67,2.67,0,0,1,452.24,461.55Z" style="fill:#e0e0e0"></path><path d="M412.39,471.06a35,35,0,0,0,29.45-13.89,45.22,45.22,0,0,0,6.94-13.69,103.42,103.42,0,0,0,3.62-16.9,147.65,147.65,0,0,0,.84-39.3,15.28,15.28,0,0,0-1.84-6.41,6.42,6.42,0,0,0-2.39-2.38,5.73,5.73,0,0,0-3.45-.6c-2.42.35-4.23,2.11-5.54,3.85a31.94,31.94,0,0,0-3.08,5.75,38.84,38.84,0,0,0-2.4,23.23c.43,1.79.68,3.64,1.81,5a2.78,2.78,0,0,0,2.25,1.1,3.45,3.45,0,0,0,2.29-1.11,8.3,8.3,0,0,0,1.47-2.07,20.84,20.84,0,0,0,1.09-2.23A21.67,21.67,0,0,0,442,391.79l.47,0a17,17,0,0,0-3.88,10.59,17.69,17.69,0,0,0,.23,2.93,7.28,7.28,0,0,1,.16,1,11.81,11.81,0,0,1-.68-3.94,16.77,16.77,0,0,1,3.72-10.83l.25-.33.21.35a22,22,0,0,1,3,15.45,19.62,19.62,0,0,1-4,9.12,4.31,4.31,0,0,1-2.9,1.37,3.73,3.73,0,0,1-3-1.39c-1.31-1.61-1.53-3.49-2-5.29A39.44,39.44,0,0,1,436,387.21a33.53,33.53,0,0,1,3.16-5.91,13,13,0,0,1,2.53-2.62,7.91,7.91,0,0,1,3.71-1.63,7,7,0,0,1,4.19.72,7.35,7.35,0,0,1,2.74,2.71,15.89,15.89,0,0,1,1.95,6.72,145.94,145.94,0,0,1-.92,39.48,104.28,104.28,0,0,1-3.74,17,45.62,45.62,0,0,1-7.16,13.83,36.4,36.4,0,0,1-20.5,13,31.07,31.07,0,0,1-7.09.73c-.81,0-1.43-.08-1.85-.11A3.56,3.56,0,0,1,412.39,471.06Z" style="fill:#e0e0e0"></path><path d="M445.34,259a5.19,5.19,0,0,1-.86-.57l-2.58-1.89.22,0a14.7,14.7,0,0,0-1.23,5.1,14.45,14.45,0,0,0,1.5,7.28,6.66,6.66,0,0,0,1.23,1.87,2.41,2.41,0,0,0,2.16.76,2.91,2.91,0,0,0,1.88-1.47,6.3,6.3,0,0,0,.82-2.38,35.08,35.08,0,0,0,.11-11.28,36.24,36.24,0,0,0-1.5-6.13,13.12,13.12,0,0,0-1.35-3,6.31,6.31,0,0,0-2.47-2.36,4.1,4.1,0,0,0-3.52,0,6.05,6.05,0,0,0-2.47,2.54,14.8,14.8,0,0,0-1.3,3.38c-.39,1.16-.62,2.38-.93,3.58-2.1,9.79-.89,20.55.49,31.61a269.32,269.32,0,0,1,2.14,37.65,265.25,265.25,0,0,1-2.25,30.72c-1.18,8.71-2.52,15.71-3.6,20.53-.5,2.41-1,4.27-1.31,5.53-.15.59-.28,1.07-.37,1.44a1.64,1.64,0,0,1-.17.48,3.14,3.14,0,0,1,.06-.5c.07-.37.16-.85.28-1.45.23-1.27.67-3.14,1.11-5.56,1-4.83,2.19-11.83,3.27-20.53a274.57,274.57,0,0,0-.19-68.22c-1.38-11.06-2.59-21.91-.42-31.84.31-1.22.56-2.45,1-3.64a16,16,0,0,1,1.37-3.52,7,7,0,0,1,2.86-2.87,5.15,5.15,0,0,1,4.44,0,6.92,6.92,0,0,1,2.81,2.67,13.66,13.66,0,0,1,1.39,3.16,36.81,36.81,0,0,1,1.48,6.24,35.47,35.47,0,0,1-.22,11.46,6.77,6.77,0,0,1-.92,2.54,3.55,3.55,0,0,1-2.35,1.74,3.12,3.12,0,0,1-2.77-1,7.43,7.43,0,0,1-1.29-2,14.57,14.57,0,0,1,0-12.64l.08-.16.14.11,2.49,2A6.5,6.5,0,0,1,445.34,259Z" style="fill:#e0e0e0"></path><path d="M443.32,11.43c0,1.84-47.63,115.66-47.63,115.66l23.81-18.36-34.31,79.56,22.61-23.87L371.68,265.09l22.39-11.32-22.6,70.37,19.37-18.36-19.37,52.63,153.39-8.57-36.33-99.13,21.94,18.35-28.4-72.21L496.6,203l-33.1-93,15.34,8Z" style="fill:#e0e0e0"></path><path d="M538.57,468.41l-3.33-123,17.33-13-1.37-2.57L535,340.22l-8-89.83h-4S520.21,451,515.47,457.86s-13.62,10.55-13.62,10.55Z" style="fill:#ebebeb"></path><path d="M533.65,462.07a1.24,1.24,0,0,1,0-.4c0-.29.07-.68.13-1.17.12-1.05.3-2.55.52-4.47.46-3.88,1.16-9.5,1.77-16.46a178,178,0,0,0,.63-24.46,111.6,111.6,0,0,0-1.64-14.38c-.91-5-2.23-10-3.51-15.25a118.66,118.66,0,0,1-3-15.37,62.14,62.14,0,0,1-.33-7.42,60.43,60.43,0,0,1,.65-7.09c.69-4.59,1.74-8.9,2.68-12.92s1.79-7.78,2.31-11.24a46.54,46.54,0,0,0,0-16.42,32.52,32.52,0,0,0-1.19-4.37l-.41-1.12a2,2,0,0,1-.12-.38,1.49,1.49,0,0,1,.19.36c.11.28.27.64.47,1.11a29.76,29.76,0,0,1,1.32,4.36,45.44,45.44,0,0,1,.2,16.51c-.49,3.48-1.31,7.24-2.23,11.28s-1.94,8.33-2.61,12.9a53.3,53.3,0,0,0-.27,14.39,118.78,118.78,0,0,0,3,15.31c1.28,5.21,2.59,10.3,3.5,15.28a110.57,110.57,0,0,1,1.61,14.43,172.06,172.06,0,0,1-.78,24.52c-.67,7-1.45,12.58-2,16.45-.28,1.91-.49,3.41-.65,4.46-.08.49-.14.87-.19,1.16A2,2,0,0,1,533.65,462.07Z" style="fill:#e0e0e0"></path><path d="M507.44,468.32a23,23,0,0,0,19.37-9.13,29.6,29.6,0,0,0,4.56-9,68.1,68.1,0,0,0,2.38-11.1,96.87,96.87,0,0,0,.56-25.84,10.1,10.1,0,0,0-1.22-4.22,4.27,4.27,0,0,0-1.56-1.57,3.87,3.87,0,0,0-2.28-.39,5.85,5.85,0,0,0-3.64,2.53,22.25,22.25,0,0,0-2,3.78A25.62,25.62,0,0,0,522,428.65a7.88,7.88,0,0,0,1.19,3.29,1.8,1.8,0,0,0,1.48.72,2.18,2.18,0,0,0,1.5-.73,5.37,5.37,0,0,0,1-1.36,15.18,15.18,0,0,0,.72-1.46,14.25,14.25,0,0,0-.94-12.91l.31,0a11.17,11.17,0,0,0-2.55,6.95,11.91,11.91,0,0,0,.15,1.93c.08.44.12.66.11.66a7.78,7.78,0,0,1-.45-2.59,11.1,11.1,0,0,1,2.44-7.12l.17-.21.14.23a14.53,14.53,0,0,1,2,10.16,12.89,12.89,0,0,1-2.63,6,2.86,2.86,0,0,1-1.9.91,2.48,2.48,0,0,1-2-.92,8.09,8.09,0,0,1-1.3-3.48A25.83,25.83,0,0,1,523,413.19,21.83,21.83,0,0,1,525,409.3a9,9,0,0,1,1.66-1.72,5.28,5.28,0,0,1,2.44-1.07,4.59,4.59,0,0,1,2.76.47,5,5,0,0,1,1.8,1.78,10.41,10.41,0,0,1,1.28,4.42,96,96,0,0,1-.6,26,69.35,69.35,0,0,1-2.46,11.17,29.76,29.76,0,0,1-4.71,9.09A24,24,0,0,1,513.73,468a20.81,20.81,0,0,1-4.66.48c-.53,0-.94-.06-1.21-.07Z" style="fill:#e0e0e0"></path><path d="M529.11,328.86a3.86,3.86,0,0,1-.56-.38l-1.7-1.24.14,0a9.78,9.78,0,0,0-.81,3.35,9.59,9.59,0,0,0,1,4.8,4.6,4.6,0,0,0,.81,1.23,1.6,1.6,0,0,0,1.42.49,1.87,1.87,0,0,0,1.23-1,4,4,0,0,0,.55-1.56,23.25,23.25,0,0,0,.07-7.42,24.65,24.65,0,0,0-1-4,8.94,8.94,0,0,0-.88-2,4.2,4.2,0,0,0-1.63-1.55,2.64,2.64,0,0,0-2.31,0,4,4,0,0,0-1.63,1.67,9.72,9.72,0,0,0-.85,2.22c-.26.77-.41,1.56-.61,2.36-1.38,6.44-.59,13.51.31,20.78a174,174,0,0,1-.06,44.95c-.78,5.73-1.66,10.34-2.37,13.5-.33,1.59-.66,2.81-.86,3.64-.1.39-.19.7-.25.94s-.09.32-.11.32a2.08,2.08,0,0,1,0-.33c.05-.24.11-.56.18-.95.16-.84.45-2.07.73-3.66.64-3.17,1.45-7.78,2.16-13.5a182.77,182.77,0,0,0,1.32-20.16A180.15,180.15,0,0,0,522,346.67c-.91-7.27-1.7-14.4-.28-20.93.21-.81.37-1.62.64-2.4a9.78,9.78,0,0,1,.9-2.31,4.5,4.5,0,0,1,1.88-1.89,3.39,3.39,0,0,1,2.92,0,4.48,4.48,0,0,1,1.84,1.76,9.06,9.06,0,0,1,.92,2.08,23.48,23.48,0,0,1,.83,11.63,4.43,4.43,0,0,1-.61,1.67,2.34,2.34,0,0,1-1.55,1.15,2,2,0,0,1-1.81-.63,4.88,4.88,0,0,1-.85-1.33,9.52,9.52,0,0,1-.92-4.92,9.64,9.64,0,0,1,.93-3.39l0-.1.1.07,1.64,1.29A4,4,0,0,1,529.11,328.86Z" style="fill:#e0e0e0"></path><path d="M527.78,166.12c0,1.2-31.32,76-31.32,76l15.66-12.07L489.56,282.4l14.87-15.7-23.75,66.2,14.72-7.45-14.86,46.27,12.74-12.07-12.74,34.6,100.85-5.63-23.88-65.18,14.42,12.07L553.26,288l9.55,4L541.05,230.9l10.09,5.23Z" style="fill:#ebebeb"></path></g><g id="freepik--Floor--inject-6"><path d="M706,471c0,.14-148.21.26-331,.26S44,471.15,44,471s148.18-.26,331-.26S706,470.87,706,471Z" style="fill:#263238"></path></g><g id="freepik--Birds--inject-6"><path d="M584.11,142.37s-1-.34-2.81-.75a22.5,22.5,0,0,0-7.86-.3,21.17,21.17,0,0,0-10.6,4.57,21.92,21.92,0,0,0-7.47,11.87l0,.13-.22.85-.32-.81a23.72,23.72,0,0,0-8.95-10.81,22.9,22.9,0,0,0-10.94-3.64,24.25,24.25,0,0,0-7.81.71c-1.8.48-2.76.9-2.78.84a4.34,4.34,0,0,1,.68-.32,16.08,16.08,0,0,1,2-.73,23.4,23.4,0,0,1,19.09,2.7,24,24,0,0,1,9.2,11l-.55,0,0-.13a22.33,22.33,0,0,1,7.7-12.15,21.25,21.25,0,0,1,10.87-4.56,21.61,21.61,0,0,1,8,.48,15.13,15.13,0,0,1,2.07.66A3.12,3.12,0,0,1,584.11,142.37Z" style="fill:#263238"></path><path d="M662.72,99.23s-.56-.15-1.56-.36a12.65,12.65,0,0,0-4.3-.12,11.64,11.64,0,0,0-5.77,2.51,12,12,0,0,0-4.06,6.47l0,.07-.22.85-.32-.81A13,13,0,0,0,641.6,102a12.51,12.51,0,0,0-6-2,13.26,13.26,0,0,0-4.27.35c-1,.24-1.53.46-1.54.41s.11-.09.36-.2a9,9,0,0,1,1.12-.43,12.77,12.77,0,0,1,10.58,1.44,13.27,13.27,0,0,1,5.11,6.12l-.54,0v-.07a12.38,12.38,0,0,1,4.29-6.75,11.73,11.73,0,0,1,6-2.5,11.5,11.5,0,0,1,4.41.31,7.84,7.84,0,0,1,1.14.38A1.46,1.46,0,0,1,662.72,99.23Z" style="fill:#263238"></path><path d="M611.33,81.58s-.54.62-1.51,1.71a36.74,36.74,0,0,0-9.17,24.37v.24l-.57,0a31.81,31.81,0,0,0-3.55-10.5A32.85,32.85,0,0,0,586.46,86.2c-1.19-.83-1.89-1.25-1.86-1.29a2.18,2.18,0,0,1,.53.25c.33.2.85.44,1.45.85a29.39,29.39,0,0,1,4.84,3.87,32,32,0,0,1,9.22,18l-.57,0v-.24a35.59,35.59,0,0,1,5.71-19.61,32.56,32.56,0,0,1,3.86-4.92c.5-.54.94-.91,1.22-1.18A2.54,2.54,0,0,1,611.33,81.58Z" style="fill:#263238"></path></g></svg>
