<svg width="28" height="28" viewBox="0 0 28 28" fill="none" xmlns="http://www.w3.org/2000/svg">
<g clip-path="url(#clip0_160_139)">
<path d="M26.5278 7.81289C26.3796 7.26198 26.0893 6.75968 25.6859 6.35628C25.2825 5.95289 24.7802 5.66256 24.2293 5.51439C22.2016 4.97119 14.0746 4.97119 14.0746 4.97119C14.0746 4.97119 5.94443 4.97119 3.91995 5.51439C3.3677 5.66145 2.8639 5.95128 2.45915 6.35475C2.05441 6.75822 1.763 7.26111 1.61419 7.81289C1.2395 9.87754 1.05765 11.9726 1.071 14.0709C1.05765 16.1692 1.2395 18.2643 1.61419 20.3289C1.76232 20.8799 2.05261 21.3824 2.45601 21.7859C2.8594 22.1894 3.36173 22.4799 3.91269 22.6282C5.9404 23.1714 14.0674 23.1714 14.0674 23.1714C14.0674 23.1714 22.1984 23.1714 24.222 22.6282C24.7743 22.481 25.2782 22.1911 25.6829 21.7874C26.0877 21.3838 26.379 20.8808 26.5278 20.3289C26.9025 18.2643 27.0843 16.1692 27.071 14.0709C27.0843 11.9726 26.9025 9.87754 26.5278 7.81289ZM11.4707 17.9676V10.171L18.2268 14.0709L11.4707 17.9676Z" fill="white"/>
</g>
<defs>
<clipPath id="clip0_160_139">
<rect width="26" height="18.2002" fill="white" transform="translate(1.07129 4.97119)"/>
</clipPath>
</defs>
</svg>
